<svg xmlns="http://www.w3.org/2000/svg" xmlns:xlink="http://www.w3.org/1999/xlink" width="1280" zoomAndPan="magnify" viewBox="0 0 960 599.999999" height="800" preserveAspectRatio="xMidYMid meet" version="1.0"><defs><g/><clipPath id="f8964eaa83"><path d="M 53 296 L 201.65625 296 L 201.65625 513 L 53 513 Z M 53 296 " clip-rule="nonzero"/></clipPath><clipPath id="40b362f7c0"><path d="M 106 526 L 130 526 L 130 539.914062 L 106 539.914062 Z M 106 526 " clip-rule="nonzero"/></clipPath><clipPath id="8c92d85e4f"><path d="M 96 526 L 120 526 L 120 539.914062 L 96 539.914062 Z M 96 526 " clip-rule="nonzero"/></clipPath><clipPath id="f9d91a82cc"><path d="M 33.65625 306 L 65 306 L 65 513 L 33.65625 513 Z M 33.65625 306 " clip-rule="nonzero"/></clipPath><clipPath id="aaefaa7df4"><path d="M 840 348 L 855 348 L 855 539.683594 L 840 539.683594 Z M 840 348 " clip-rule="nonzero"/></clipPath><clipPath id="a8107f9265"><path d="M 930 397 L 947.226562 397 L 947.226562 420 L 930 420 Z M 930 397 " clip-rule="nonzero"/></clipPath><clipPath id="c71a6b8b54"><path d="M 526.519531 158 L 534 158 L 534 204.757812 L 526.519531 204.757812 Z M 526.519531 158 " clip-rule="nonzero"/></clipPath><clipPath id="0ce29a2580"><path d="M 529 158 L 548 158 L 548 204.757812 L 529 204.757812 Z M 529 158 " clip-rule="nonzero"/></clipPath></defs><path fill="#b74227" d="M 40.289062 306.769531 L 163.097656 288.9375 C 168.847656 288.125 172.828125 292.214844 172.878906 298.027344 L 174.472656 470.40625 L 67.195312 390.558594 Z M 40.289062 306.769531 " fill-opacity="1" fill-rule="nonzero"/><path fill="#c6b9ac" d="M 43.1875 307.667969 L 171.203125 289.023438 C 171.707031 288.949219 172.21875 288.929688 172.726562 288.960938 C 173.238281 288.996094 173.742188 289.082031 174.234375 289.222656 C 174.726562 289.363281 175.199219 289.550781 175.652344 289.792969 C 176.105469 290.03125 176.527344 290.316406 176.921875 290.644531 C 177.3125 290.972656 177.667969 291.339844 177.984375 291.742188 C 178.300781 292.144531 178.570312 292.578125 178.796875 293.039062 C 179.019531 293.5 179.195312 293.980469 179.320312 294.476562 C 179.445312 294.972656 179.515625 295.480469 179.535156 295.992188 L 181.378906 361.574219 L 55.351562 342.101562 Z M 43.1875 307.667969 " fill-opacity="1" fill-rule="nonzero"/><path fill="#f2e4d6" d="M 48.570312 309.304688 L 176.597656 290.660156 C 177.105469 290.585938 177.613281 290.566406 178.125 290.601562 C 178.632812 290.632812 179.136719 290.722656 179.628906 290.859375 C 180.121094 291 180.59375 291.191406 181.046875 291.429688 C 181.5 291.667969 181.921875 291.953125 182.316406 292.28125 C 182.710938 292.609375 183.0625 292.976562 183.378906 293.378906 C 183.695312 293.785156 183.964844 294.214844 184.191406 294.675781 C 184.417969 295.136719 184.589844 295.617188 184.714844 296.113281 C 184.839844 296.613281 184.910156 297.117188 184.929688 297.628906 L 186.785156 363.210938 L 60.757812 343.742188 Z M 48.570312 309.304688 " fill-opacity="1" fill-rule="nonzero"/><path fill="#f7e8dc" d="M 56.488281 311.019531 L 184.503906 292.359375 C 185.007812 292.289062 185.519531 292.265625 186.03125 292.300781 C 186.542969 292.335938 187.042969 292.421875 187.535156 292.5625 C 188.03125 292.703125 188.503906 292.890625 188.957031 293.132812 C 189.410156 293.371094 189.832031 293.65625 190.226562 293.988281 C 190.617188 294.316406 190.972656 294.683594 191.289062 295.085938 C 191.605469 295.492188 191.875 295.925781 192.101562 296.386719 C 192.324219 296.847656 192.5 297.328125 192.621094 297.824219 C 192.746094 298.324219 192.816406 298.828125 192.835938 299.339844 L 194.679688 364.921875 L 68.652344 345.441406 Z M 56.488281 311.019531 " fill-opacity="1" fill-rule="nonzero"/><path fill="#ffa78f" d="M 161.933594 288.59375 L 38.269531 306.226562 L 61.789062 323.613281 L 192.574219 297.023438 L 189.917969 295.980469 C 188.105469 295.230469 186.222656 294.976562 184.273438 295.21875 L 61.359375 310.652344 L 44.695312 306.34375 L 166.160156 288.9375 C 166.160156 288.9375 165.734375 288.113281 161.933594 288.59375 Z M 161.933594 288.59375 " fill-opacity="1" fill-rule="nonzero"/><g clip-path="url(#f8964eaa83)"><path fill="#fc7b4b" d="M 61.195312 312.3125 L 187.949219 296.304688 C 188.539062 296.230469 189.125 296.21875 189.71875 296.269531 C 190.308594 296.320312 190.886719 296.429688 191.453125 296.601562 C 192.019531 296.773438 192.566406 297 193.085938 297.289062 C 193.601562 297.574219 194.085938 297.910156 194.535156 298.296875 C 194.984375 298.683594 195.390625 299.113281 195.75 299.585938 C 196.109375 300.058594 196.414062 300.5625 196.667969 301.101562 C 196.921875 301.636719 197.117188 302.195312 197.253906 302.769531 C 197.390625 303.347656 197.464844 303.933594 197.480469 304.527344 L 201.417969 466.136719 C 201.4375 467.035156 201.382812 467.929688 201.253906 468.820312 C 201.125 469.710938 200.921875 470.585938 200.644531 471.441406 C 200.363281 472.296875 200.015625 473.121094 199.597656 473.917969 C 199.179688 474.714844 198.699219 475.472656 198.152344 476.183594 C 197.609375 476.898438 197.003906 477.5625 196.347656 478.175781 C 195.6875 478.789062 194.984375 479.339844 194.230469 479.832031 C 193.480469 480.324219 192.691406 480.75 191.867188 481.109375 C 191.046875 481.464844 190.195312 481.753906 189.324219 481.964844 L 64.339844 512.550781 L 58.226562 507.65625 L 53.777344 314.554688 Z M 61.195312 312.3125 " fill-opacity="1" fill-rule="nonzero"/></g><g clip-path="url(#40b362f7c0)"><path fill="#9b8d7b" d="M 120.675781 526.71875 L 121.875 534.503906 L 114.8125 533.847656 L 108.867188 534.503906 L 106.34375 538.269531 L 109.085938 539.792969 L 129.363281 539.792969 L 126.820312 526.71875 Z M 120.675781 526.71875 " fill-opacity="1" fill-rule="nonzero"/></g><path fill="#726658" d="M 119.1875 534.179688 L 118.25 536.820312 L 120.21875 536.820312 L 121.300781 534.117188 Z M 119.1875 534.179688 " fill-opacity="1" fill-rule="nonzero"/><g clip-path="url(#8c92d85e4f)"><path fill="#c2b5a1" d="M 110.5 526.71875 L 111.5625 533.628906 L 104.625 533.847656 L 98.679688 534.503906 L 96.160156 538.269531 L 98.910156 539.792969 L 119.175781 539.792969 L 116.636719 526.71875 Z M 110.5 526.71875 " fill-opacity="1" fill-rule="nonzero"/></g><path fill="#076ba8" d="M 125.03125 472.472656 L 125.882812 476.6875 L 128.125 529.347656 L 113.917969 529.347656 L 113.167969 475.328125 Z M 125.03125 472.472656 " fill-opacity="1" fill-rule="nonzero"/><path fill="#0078d3" d="M 103.742188 477.332031 L 104.898438 482.207031 L 103.742188 507.351562 L 108.761719 531.9375 L 122.582031 531.9375 L 117.605469 503.292969 L 119.636719 489.0625 L 120.917969 477.742188 L 118.15625 474.277344 Z M 103.742188 477.332031 " fill-opacity="1" fill-rule="nonzero"/><path fill="#f9efe1" d="M 85.421875 482.207031 L 85.421875 451.164062 C 85.421875 449.957031 85.523438 448.757812 85.726562 447.566406 C 85.929688 446.375 86.226562 445.207031 86.625 444.066406 C 87.023438 442.925781 87.515625 441.828125 88.097656 440.769531 C 88.679688 439.714844 89.347656 438.710938 90.101562 437.765625 C 90.851562 436.824219 91.675781 435.945312 92.574219 435.140625 C 93.472656 434.335938 94.433594 433.609375 95.453125 432.964844 C 96.472656 432.320312 97.539062 431.769531 98.652344 431.304688 C 99.765625 430.839844 100.910156 430.472656 102.085938 430.199219 C 102.871094 430.019531 103.660156 429.882812 104.460938 429.792969 C 105.261719 429.703125 106.0625 429.65625 106.867188 429.652344 C 107.671875 429.652344 108.476562 429.695312 109.273438 429.785156 C 110.074219 429.875 110.867188 430.007812 111.652344 430.1875 C 112.4375 430.367188 113.207031 430.585938 113.96875 430.851562 C 114.730469 431.117188 115.472656 431.425781 116.195312 431.773438 C 116.921875 432.125 117.625 432.511719 118.308594 432.941406 C 118.988281 433.367188 119.644531 433.832031 120.273438 434.335938 C 120.90625 434.835938 121.503906 435.371094 122.074219 435.941406 C 122.644531 436.511719 123.179688 437.113281 123.683594 437.742188 C 124.183594 438.371094 124.652344 439.027344 125.078125 439.710938 C 125.507812 440.390625 125.898438 441.097656 126.246094 441.820312 C 126.597656 442.546875 126.90625 443.292969 127.171875 444.050781 C 127.4375 444.8125 127.660156 445.585938 127.839844 446.371094 C 128.019531 447.15625 128.15625 447.953125 128.246094 448.753906 C 128.339844 449.554688 128.382812 450.355469 128.382812 451.164062 L 128.382812 471.730469 Z M 85.421875 482.207031 " fill-opacity="1" fill-rule="nonzero"/><path fill="#f9efe1" d="M 135.902344 393.648438 L 136.058594 358.933594 C 136.066406 357.578125 136.191406 356.234375 136.429688 354.902344 C 136.671875 353.570312 137.023438 352.265625 137.488281 350.992188 C 137.953125 349.722656 138.523438 348.5 139.199219 347.328125 C 139.875 346.152344 140.644531 345.046875 141.511719 344.007812 C 142.378906 342.96875 143.328125 342.011719 144.359375 341.136719 C 145.394531 340.261719 146.492188 339.480469 147.660156 338.796875 C 148.828125 338.113281 150.042969 337.535156 151.308594 337.058594 C 152.578125 336.585938 153.875 336.226562 155.203125 335.976562 C 156.050781 335.820312 156.902344 335.707031 157.757812 335.644531 C 158.617188 335.578125 159.472656 335.5625 160.335938 335.59375 C 161.195312 335.625 162.046875 335.699219 162.898438 335.824219 C 163.75 335.949219 164.59375 336.121094 165.425781 336.339844 C 166.257812 336.558594 167.074219 336.820312 167.878906 337.128906 C 168.679688 337.433594 169.464844 337.785156 170.230469 338.179688 C 170.996094 338.574219 171.734375 339.007812 172.453125 339.484375 C 173.167969 339.960938 173.859375 340.472656 174.519531 341.027344 C 175.179688 341.578125 175.808594 342.164062 176.402344 342.785156 C 177 343.40625 177.558594 344.058594 178.085938 344.742188 C 178.609375 345.421875 179.09375 346.132812 179.542969 346.867188 C 179.988281 347.605469 180.394531 348.363281 180.757812 349.144531 C 181.121094 349.925781 181.4375 350.722656 181.714844 351.539062 C 181.988281 352.355469 182.21875 353.1875 182.40625 354.027344 C 182.589844 354.867188 182.726562 355.71875 182.816406 356.574219 C 182.910156 357.429688 182.953125 358.289062 182.949219 359.152344 L 182.855469 384.382812 Z M 135.902344 393.648438 " fill-opacity="1" fill-rule="nonzero"/><path fill="#f9efe1" d="M 78.128906 406.105469 L 78.277344 373.613281 C 78.28125 372.347656 78.398438 371.085938 78.621094 369.839844 C 78.84375 368.589844 79.171875 367.371094 79.605469 366.179688 C 80.042969 364.988281 80.574219 363.84375 81.207031 362.742188 C 81.839844 361.644531 82.5625 360.605469 83.371094 359.632812 C 84.183594 358.660156 85.070312 357.761719 86.039062 356.941406 C 87.003906 356.125 88.035156 355.394531 89.125 354.75 C 90.21875 354.109375 91.359375 353.566406 92.542969 353.125 C 93.730469 352.679688 94.945312 352.34375 96.191406 352.109375 C 96.980469 351.960938 97.777344 351.855469 98.582031 351.796875 C 99.382812 351.738281 100.1875 351.722656 100.992188 351.75 C 101.792969 351.777344 102.59375 351.851562 103.390625 351.96875 C 104.1875 352.085938 104.972656 352.246094 105.753906 352.449219 C 106.53125 352.652344 107.296875 352.898438 108.046875 353.1875 C 108.800781 353.472656 109.53125 353.804688 110.25 354.171875 C 110.964844 354.539062 111.65625 354.945312 112.328125 355.390625 C 113 355.835938 113.644531 356.316406 114.261719 356.835938 C 114.878906 357.351562 115.46875 357.898438 116.027344 358.480469 C 116.582031 359.0625 117.109375 359.671875 117.597656 360.308594 C 118.089844 360.949219 118.542969 361.613281 118.960938 362.300781 C 119.378906 362.988281 119.757812 363.699219 120.097656 364.429688 C 120.4375 365.160156 120.738281 365.90625 120.996094 366.671875 C 121.253906 367.433594 121.46875 368.210938 121.644531 368.996094 C 121.816406 369.785156 121.945312 370.578125 122.03125 371.378906 C 122.117188 372.183594 122.160156 372.984375 122.15625 373.792969 L 122.074219 397.40625 Z M 78.128906 406.105469 " fill-opacity="1" fill-rule="nonzero"/><path fill="#f9efe1" d="M 144.402344 467.710938 L 144.539062 437.746094 C 144.542969 436.574219 144.652344 435.414062 144.859375 434.261719 C 145.0625 433.113281 145.367188 431.988281 145.769531 430.886719 C 146.167969 429.789062 146.660156 428.734375 147.246094 427.71875 C 147.828125 426.707031 148.496094 425.75 149.242188 424.851562 C 149.992188 423.957031 150.8125 423.128906 151.703125 422.375 C 152.59375 421.617188 153.542969 420.945312 154.550781 420.351562 C 155.558594 419.761719 156.609375 419.261719 157.703125 418.855469 C 158.796875 418.445312 159.917969 418.132812 161.066406 417.917969 C 161.796875 417.78125 162.53125 417.683594 163.273438 417.628906 C 164.015625 417.574219 164.753906 417.558594 165.496094 417.585938 C 166.238281 417.609375 166.976562 417.675781 167.710938 417.785156 C 168.449219 417.890625 169.175781 418.039062 169.894531 418.226562 C 170.613281 418.414062 171.316406 418.640625 172.011719 418.90625 C 172.707031 419.171875 173.382812 419.472656 174.042969 419.8125 C 174.703125 420.152344 175.34375 420.527344 175.960938 420.9375 C 176.582031 421.351562 177.175781 421.792969 177.746094 422.269531 C 178.316406 422.746094 178.859375 423.253906 179.375 423.789062 C 179.890625 424.324219 180.375 424.886719 180.824219 425.476562 C 181.277344 426.066406 181.699219 426.679688 182.082031 427.316406 C 182.46875 427.949219 182.820312 428.605469 183.132812 429.28125 C 183.445312 429.957031 183.722656 430.644531 183.960938 431.347656 C 184.195312 432.054688 184.394531 432.769531 184.554688 433.496094 C 184.714844 434.222656 184.832031 434.957031 184.910156 435.695312 C 184.988281 436.4375 185.027344 437.179688 185.023438 437.921875 L 184.949219 459.699219 Z M 144.402344 467.710938 " fill-opacity="1" fill-rule="nonzero"/><path fill="#f2ba8c" d="M 102.835938 445.519531 L 108.761719 444.128906 L 109.84375 449.085938 L 104.4375 450.640625 Z M 102.835938 445.519531 " fill-opacity="1" fill-rule="nonzero"/><path fill="#ffd0a6" d="M 82.859375 455.996094 L 81.753906 454.316406 L 82.859375 449.785156 L 81.753906 448.542969 L 80.652344 451.464844 L 79.308594 445.632812 L 77.671875 446.039062 L 78.953125 451.464844 L 74.535156 446.125 L 73.089844 446.980469 L 76.566406 451.832031 L 72.496094 449.015625 L 71.640625 450.121094 L 75.640625 453.355469 L 72.066406 453.617188 L 71.640625 454.804688 L 76.234375 455.535156 L 78.441406 457.015625 L 80.066406 457.476562 L 80.984375 458.550781 Z M 82.859375 455.996094 " fill-opacity="1" fill-rule="nonzero"/><path fill="#ffd0a6" d="M 127.238281 447.46875 L 127.882812 445.558594 L 125.664062 441.460938 L 126.425781 439.976562 L 128.226562 442.523438 L 128.050781 436.535156 L 129.738281 436.523438 L 129.875 442.097656 L 132.800781 435.804688 L 134.40625 436.261719 L 132.269531 441.835938 L 135.496094 438.089844 L 136.601562 438.945312 L 133.5625 443.085938 L 137.070312 442.417969 L 137.789062 443.472656 L 133.53125 445.339844 L 131.769531 447.335938 L 130.3125 448.191406 L 129.695312 449.460938 Z M 127.238281 447.46875 " fill-opacity="1" fill-rule="nonzero"/><path fill="#785014" d="M 96.253906 436.429688 C 96.253906 436.429688 94.835938 444.203125 100.792969 446.175781 L 103.742188 447.105469 L 103.96875 446.175781 L 105.949219 446.800781 L 109.667969 446.175781 C 111.738281 443.652344 113.097656 440.789062 113.738281 437.589844 C 113.859375 436.910156 113.898438 436.226562 113.851562 435.539062 C 113.804688 434.851562 113.675781 434.179688 113.464844 433.523438 C 113.25 432.867188 112.964844 432.246094 112.601562 431.660156 C 112.238281 431.078125 111.808594 430.542969 111.3125 430.066406 L 110.136719 429.878906 C 108.097656 429.542969 106.058594 429.515625 104.011719 429.792969 C 101.964844 430.070312 100.003906 430.640625 98.128906 431.503906 L 97.628906 431.734375 Z M 96.253906 436.429688 " fill-opacity="1" fill-rule="nonzero"/><path fill="#726658" d="M 104.679688 533.710938 L 103.742188 536.351562 L 105.699219 536.351562 L 106.792969 533.660156 Z M 104.679688 533.710938 " fill-opacity="1" fill-rule="nonzero"/><path fill="#726658" d="M 108.773438 533.523438 L 107.835938 536.164062 L 109.804688 536.164062 L 110.886719 533.472656 Z M 108.773438 533.523438 " fill-opacity="1" fill-rule="nonzero"/><path fill="#38ab87" d="M 97.628906 451.664062 L 101.542969 449.140625 L 112.167969 447.105469 L 117.199219 449.390625 L 126.300781 472.710938 L 126.300781 479.921875 L 104.898438 482.207031 Z M 97.628906 451.664062 " fill-opacity="1" fill-rule="nonzero"/><path fill="#38ab87" d="M 99.097656 450.640625 L 97.324219 451.777344 L 91.410156 466.199219 L 83.359375 453.398438 L 79.339844 458.414062 L 92.179688 474.882812 L 100.367188 464.550781 L 103.117188 463.769531 Z M 99.097656 450.640625 " fill-opacity="1" fill-rule="nonzero"/><path fill="#38ab87" d="M 115.144531 448.460938 L 117.199219 449.390625 L 122.582031 457.820312 L 127.0625 446.175781 L 131.320312 448.890625 L 124.644531 464.1875 L 115.144531 458.46875 Z M 115.144531 448.460938 " fill-opacity="1" fill-rule="nonzero"/><g clip-path="url(#f9d91a82cc)"><path fill="#ea6239" d="M 61.195312 312.3125 L 64.382812 512.550781 L 41.03125 505.421875 C 40.496094 505.261719 39.980469 505.054688 39.476562 504.808594 C 38.976562 504.5625 38.5 504.277344 38.046875 503.953125 C 37.589844 503.628906 37.167969 503.269531 36.769531 502.875 C 36.375 502.480469 36.011719 502.054688 35.6875 501.601562 C 35.359375 501.148438 35.070312 500.671875 34.820312 500.171875 C 34.574219 499.671875 34.363281 499.15625 34.199219 498.621094 C 34.035156 498.089844 33.914062 497.546875 33.835938 496.992188 C 33.757812 496.4375 33.726562 495.882812 33.738281 495.324219 L 38.269531 306.226562 Z M 61.195312 312.3125 " fill-opacity="1" fill-rule="nonzero"/></g><path fill="#785014" d="M 164.253906 354.3125 C 164.253906 354.3125 154.183594 348.375 148.453125 363.292969 C 148.234375 363.828125 147.914062 364.292969 147.5 364.691406 C 147.082031 365.089844 146.601562 365.386719 146.058594 365.578125 C 144.464844 365.945312 145.820312 368.59375 145.984375 369.628906 C 146.152344 370.660156 144.945312 370.746094 144.808594 372.289062 C 144.675781 373.832031 145.140625 374.21875 145.140625 374.21875 L 147.476562 374.730469 L 148.953125 372.976562 L 149.296875 374.761719 L 168.328125 376.191406 L 168.328125 374.398438 L 169.484375 376.222656 L 171.453125 376.222656 C 171.453125 376.222656 172.210938 375.378906 170.847656 373.46875 C 169.484375 371.558594 171.660156 371.703125 171.773438 369.921875 C 171.890625 368.136719 169.691406 367.59375 170.222656 366.027344 C 170.753906 364.464844 171.253906 355.167969 164.253906 354.3125 Z M 164.253906 354.3125 " fill-opacity="1" fill-rule="nonzero"/><path fill="#f4a67a" d="M 162.183594 369.898438 L 161.265625 375.765625 C 160.230469 376.015625 159.183594 376.074219 158.128906 375.941406 C 157.074219 375.8125 156.074219 375.496094 155.132812 375.003906 L 155.910156 367.917969 Z M 162.183594 369.898438 " fill-opacity="1" fill-rule="nonzero"/><path fill="#38ab87" d="M 169.984375 377.382812 L 158.628906 373.824219 L 155.203125 373.75 L 148.257812 376.503906 C 147.621094 376.757812 147.035156 377.089844 146.492188 377.503906 C 145.949219 377.917969 145.472656 378.398438 145.066406 378.941406 C 144.65625 379.488281 144.328125 380.082031 144.078125 380.71875 C 143.832031 381.355469 143.675781 382.011719 143.613281 382.691406 L 142.601562 392.730469 L 169.546875 386.949219 Z M 169.984375 377.382812 " fill-opacity="1" fill-rule="nonzero"/><path fill="#f4b392" d="M 151.070312 375.160156 L 152.070312 373.417969 L 150.539062 370.179688 L 152.171875 367.84375 L 156.589844 370.273438 L 154.359375 377.058594 Z M 151.070312 375.160156 " fill-opacity="1" fill-rule="nonzero"/><path fill="#ffbf96" d="M 166.117188 384.332031 L 162.527344 385.875 L 155.214844 385.71875 L 150.433594 388.984375 L 150.601562 391.351562 L 167.046875 387.953125 Z M 166.117188 384.332031 " fill-opacity="1" fill-rule="nonzero"/><path fill="#ffbf96" d="M 167.816406 359.515625 C 167.816406 359.515625 168.859375 370.566406 164.089844 371.703125 C 159.316406 372.84375 152.183594 367.84375 152.183594 367.84375 L 152.246094 364.371094 C 152.402344 356.449219 162.496094 352.171875 167.421875 358.371094 C 167.566406 358.558594 167.703125 359.339844 167.816406 359.515625 Z M 167.816406 359.515625 " fill-opacity="1" fill-rule="nonzero"/><path fill="#5dcea8" d="M 155.351562 375.941406 L 150.890625 373.667969 L 140.820312 387.953125 L 141.269531 392.742188 L 148.464844 392.875 Z M 155.351562 375.941406 " fill-opacity="1" fill-rule="nonzero"/><path fill="#19100f" d="M 160.796875 363.597656 C 160.796875 363.734375 160.769531 363.863281 160.71875 363.988281 C 160.667969 364.113281 160.59375 364.222656 160.496094 364.320312 C 160.402344 364.417969 160.292969 364.488281 160.167969 364.542969 C 160.042969 364.59375 159.910156 364.621094 159.777344 364.621094 C 159.640625 364.621094 159.511719 364.59375 159.386719 364.542969 C 159.261719 364.488281 159.148438 364.417969 159.054688 364.320312 C 158.957031 364.222656 158.886719 364.113281 158.832031 363.988281 C 158.78125 363.863281 158.753906 363.734375 158.753906 363.597656 C 158.753906 363.460938 158.78125 363.332031 158.832031 363.207031 C 158.886719 363.082031 158.957031 362.96875 159.054688 362.875 C 159.148438 362.777344 159.261719 362.703125 159.386719 362.652344 C 159.511719 362.601562 159.640625 362.574219 159.777344 362.574219 C 159.910156 362.574219 160.042969 362.601562 160.167969 362.652344 C 160.292969 362.703125 160.402344 362.777344 160.496094 362.875 C 160.59375 362.96875 160.667969 363.082031 160.71875 363.207031 C 160.769531 363.332031 160.796875 363.460938 160.796875 363.597656 Z M 160.796875 363.597656 " fill-opacity="1" fill-rule="nonzero"/><path fill="#19100f" d="M 166.046875 363.617188 C 166.046875 363.753906 166.019531 363.882812 165.96875 364.007812 C 165.917969 364.132812 165.84375 364.246094 165.746094 364.339844 C 165.652344 364.4375 165.542969 364.511719 165.417969 364.5625 C 165.292969 364.613281 165.160156 364.640625 165.027344 364.640625 C 164.890625 364.640625 164.761719 364.613281 164.636719 364.5625 C 164.511719 364.511719 164.398438 364.4375 164.304688 364.339844 C 164.207031 364.246094 164.132812 364.132812 164.082031 364.007812 C 164.03125 363.882812 164.003906 363.753906 164.003906 363.617188 C 164.003906 363.484375 164.03125 363.351562 164.082031 363.226562 C 164.132812 363.101562 164.207031 362.992188 164.304688 362.894531 C 164.398438 362.800781 164.511719 362.726562 164.636719 362.671875 C 164.761719 362.621094 164.890625 362.59375 165.027344 362.59375 C 165.160156 362.59375 165.292969 362.621094 165.417969 362.671875 C 165.542969 362.726562 165.652344 362.800781 165.746094 362.894531 C 165.84375 362.992188 165.917969 363.101562 165.96875 363.226562 C 166.019531 363.351562 166.046875 363.484375 166.046875 363.617188 Z M 166.046875 363.617188 " fill-opacity="1" fill-rule="nonzero"/><path fill="#db5533" d="M 159.089844 368.03125 C 159.457031 368.371094 159.871094 368.640625 160.332031 368.839844 C 160.792969 369.039062 161.269531 369.15625 161.769531 369.191406 C 162.269531 369.226562 162.761719 369.175781 163.246094 369.042969 C 163.726562 368.910156 164.175781 368.703125 164.589844 368.417969 L 164.308594 368.023438 C 163.941406 368.277344 163.546875 368.46875 163.117188 368.585938 C 162.6875 368.707031 162.25 368.75 161.804688 368.71875 C 161.359375 368.6875 160.929688 368.582031 160.523438 368.40625 C 160.113281 368.226562 159.746094 367.984375 159.421875 367.675781 Z M 159.089844 368.03125 " fill-opacity="1" fill-rule="nonzero"/><path fill="#785014" d="M 166.210938 361.769531 C 166.269531 361.730469 166.296875 361.675781 166.296875 361.605469 C 166.296875 361.535156 166.269531 361.480469 166.210938 361.4375 C 165.933594 361.203125 165.613281 361.058594 165.253906 361.003906 C 164.894531 360.953125 164.546875 360.996094 164.214844 361.132812 C 164.070312 361.1875 164.027344 361.285156 164.078125 361.425781 C 164.125 361.5625 164.214844 361.601562 164.347656 361.550781 C 164.605469 361.441406 164.871094 361.40625 165.144531 361.441406 C 165.421875 361.476562 165.671875 361.578125 165.890625 361.75 C 165.925781 361.808594 165.976562 361.839844 166.046875 361.84375 C 166.113281 361.847656 166.171875 361.824219 166.210938 361.769531 Z M 166.210938 361.769531 " fill-opacity="1" fill-rule="nonzero"/><path fill="#785014" d="M 160.515625 361.425781 C 160.570312 361.386719 160.597656 361.328125 160.597656 361.261719 C 160.597656 361.191406 160.570312 361.132812 160.515625 361.09375 C 160.195312 360.925781 159.851562 360.851562 159.488281 360.871094 C 159.128906 360.890625 158.796875 361.003906 158.496094 361.207031 C 158.367188 361.289062 158.34375 361.390625 158.421875 361.519531 C 158.496094 361.628906 158.589844 361.652344 158.703125 361.59375 C 158.929688 361.433594 159.183594 361.339844 159.460938 361.320312 C 159.738281 361.296875 160.003906 361.347656 160.253906 361.46875 C 160.351562 361.527344 160.441406 361.511719 160.515625 361.425781 Z M 160.515625 361.425781 " fill-opacity="1" fill-rule="nonzero"/><path fill="#db5533" d="M 163.246094 367.070312 L 163.191406 367.070312 L 162.964844 367.195312 C 162.574219 367.332031 162.1875 367.332031 161.796875 367.195312 L 161.527344 367.113281 L 161.660156 366.644531 L 161.933594 366.726562 C 162.214844 366.824219 162.496094 366.824219 162.777344 366.726562 L 162.890625 366.664062 C 163.328125 366.257812 162.796875 365.039062 162.566406 364.628906 L 162.996094 364.390625 C 163.121094 364.640625 164.027344 366.332031 163.246094 367.070312 Z M 163.246094 367.070312 " fill-opacity="1" fill-rule="nonzero"/><path fill="#785014" d="M 164.160156 355.886719 C 164.160156 355.886719 163.203125 360.394531 155.359375 362.949219 C 155.359375 362.949219 153.214844 364.085938 154.058594 367.207031 C 154.179688 367.398438 154.261719 367.605469 154.300781 367.828125 C 154.34375 368.046875 154.339844 368.269531 154.292969 368.492188 C 154.25 368.714844 154.164062 368.917969 154.039062 369.105469 C 153.910156 369.292969 153.753906 369.449219 153.570312 369.578125 L 150.539062 370.179688 C 150.539062 370.179688 148.746094 351.160156 164.160156 355.886719 Z M 164.160156 355.886719 " fill-opacity="1" fill-rule="nonzero"/><path fill="#785014" d="M 164.160156 355.886719 C 164.160156 355.886719 165.015625 361.542969 167.710938 365.402344 C 167.703125 365.402344 171.191406 357.460938 164.160156 355.886719 Z M 164.160156 355.886719 " fill-opacity="1" fill-rule="nonzero"/><path fill="#38ab87" d="M 166.054688 376.148438 L 172.742188 378.277344 L 178.554688 385.269531 L 166.296875 388.109375 L 164.691406 384.9375 Z M 166.054688 376.148438 " fill-opacity="1" fill-rule="nonzero"/><path fill="#5dcea8" d="M 174.640625 382.441406 L 168.171875 382.765625 L 162.515625 385.894531 L 163.558594 388.703125 L 178.898438 385.707031 L 177.699219 383.964844 C 177.359375 383.460938 176.914062 383.074219 176.367188 382.800781 C 175.824219 382.53125 175.246094 382.410156 174.640625 382.441406 Z M 174.640625 382.441406 " fill-opacity="1" fill-rule="nonzero"/><path fill="#f9efe1" d="M 52.214844 394.441406 L 54.027344 392.355469 L 54.925781 384.464844 L 40.882812 384.664062 L 40.132812 391.207031 L 43.1875 394.515625 L 46.03125 394.515625 L 46.75 391.988281 L 48.707031 394.484375 Z M 43.101562 391.3125 L 42.363281 390.007812 L 42.5 387.261719 L 46.144531 387.449219 L 45.988281 391.050781 L 44.71875 391.644531 Z M 49.257812 391.582031 L 48.3125 389.976562 L 48.3125 387.417969 L 52.476562 387.417969 L 52.320312 391.019531 L 51.058594 391.613281 Z M 49.257812 391.582031 " fill-opacity="1" fill-rule="nonzero"/><path fill="#f9efe1" d="M 49.488281 407.183594 C 50.015625 406.898438 50.476562 406.53125 50.867188 406.074219 C 51.253906 405.613281 51.546875 405.101562 51.738281 404.53125 C 51.933594 403.964844 52.015625 403.378906 51.984375 402.777344 C 51.957031 402.179688 51.820312 401.605469 51.570312 401.058594 C 50.25 397.925781 46.144531 398.804688 46.144531 398.804688 C 43.664062 398.804688 39.894531 400.890625 41.488281 404.835938 C 43.082031 408.777344 48.0625 408.007812 49.488281 407.183594 Z M 43.238281 403.71875 C 42.757812 401.921875 46.363281 401.046875 46.363281 401.046875 C 46.363281 401.046875 49.144531 400.546875 49.820312 402.296875 C 50.5 404.050781 48.65625 405.148438 47.3125 405.429688 C 45.96875 405.710938 43.757812 405.511719 43.25 403.71875 Z M 43.238281 403.71875 " fill-opacity="1" fill-rule="nonzero"/><path fill="#f9efe1" d="M 49.445312 421.40625 C 49.976562 421.121094 50.433594 420.753906 50.824219 420.292969 C 51.214844 419.835938 51.503906 419.324219 51.699219 418.753906 C 51.890625 418.1875 51.972656 417.601562 51.945312 417 C 51.914062 416.402344 51.777344 415.828125 51.527344 415.28125 C 50.195312 412.148438 46.101562 413.027344 46.101562 413.027344 C 43.613281 413.027344 39.792969 415.113281 41.4375 419.054688 C 43.082031 423 48.03125 422.230469 49.445312 421.40625 Z M 43.195312 417.941406 C 42.707031 416.144531 46.320312 415.269531 46.320312 415.269531 C 46.320312 415.269531 49.101562 414.769531 49.78125 416.519531 C 50.457031 418.273438 48.613281 419.371094 47.269531 419.652344 C 45.925781 419.933594 43.757812 419.734375 43.21875 417.941406 Z M 43.195312 417.941406 " fill-opacity="1" fill-rule="nonzero"/><path fill="#f9efe1" d="M 52.507812 425.160156 L 45.601562 425.933594 L 42.070312 425.910156 L 41.5 427.507812 L 44.71875 428.375 L 40.96875 431.222656 L 40.394531 433.246094 L 46.375 430.640625 L 50.476562 434.070312 L 51.746094 432.414062 L 47.5 428.039062 L 52.269531 428.101562 Z M 52.507812 425.160156 " fill-opacity="1" fill-rule="nonzero"/><path fill="#f9efe1" d="M 40.164062 316.015625 L 58.257812 321.023438 L 58.257812 326.898438 L 40.414062 321.453125 Z M 40.164062 316.015625 " fill-opacity="1" fill-rule="nonzero"/><path fill="#f9efe1" d="M 39.53125 492.222656 L 57.621094 497.230469 L 57.621094 503.105469 L 39.78125 497.660156 Z M 39.53125 492.222656 " fill-opacity="1" fill-rule="nonzero"/><g fill="#005e6b" fill-opacity="1"><g transform="translate(34.916018, 251.19605)"><g><path d="M 17.171875 0.417969 C 20.398438 0.417969 26.328125 0.417969 29.554688 0 C 31.21875 -0.207031 32.574219 -1.664062 32.261719 -3.433594 C 31.53125 -8.84375 29.347656 -14.882812 29.140625 -21.542969 C 29.140625 -24.144531 29.867188 -25.289062 31.429688 -25.289062 C 50.472656 -24.144531 70.660156 -33.199219 70.660156 -53.28125 C 70.660156 -66.601562 59.214844 -73.785156 40.066406 -73.785156 C 28.722656 -73.785156 15.089844 -73.472656 7.492188 -72.949219 C 6.035156 -72.847656 4.890625 -71.703125 4.785156 -70.246094 C 3.332031 -55.675781 2.183594 -27.160156 2.082031 -2.914062 C 2.082031 -1.351562 3.226562 -0.207031 4.890625 0 C 7.910156 0.3125 13.839844 0.417969 17.171875 0.417969 Z M 32.15625 -37.671875 C 30.492188 -37.566406 29.347656 -38.296875 29.242188 -39.859375 C 29.140625 -43.605469 29.140625 -47.765625 29.242188 -51.097656 C 29.347656 -52.449219 30.285156 -53.386719 31.84375 -53.492188 C 32.78125 -53.492188 33.71875 -53.59375 34.863281 -53.59375 C 41.523438 -53.59375 44.75 -51.097656 44.75 -46.933594 C 44.75 -42.667969 40.792969 -37.984375 32.15625 -37.671875 Z M 32.15625 -37.671875 "/></g></g></g><g fill="#005e6b" fill-opacity="1"><g transform="translate(110.673596, 251.19605)"><g><path d="M 33.40625 0.832031 C 52.136719 0.832031 65.457031 -6.765625 65.457031 -26.746094 C 65.457031 -45.582031 52.242188 -57.445312 33.40625 -57.445312 C 14.570312 -57.445312 1.25 -45.582031 1.25 -26.746094 C 1.25 -6.765625 14.671875 0.832031 33.40625 0.832031 Z M 33.40625 -17.378906 C 28.304688 -17.378906 24.664062 -21.542969 24.664062 -28.203125 C 24.664062 -34.652344 28.203125 -39.335938 33.40625 -39.335938 C 38.609375 -39.335938 42.148438 -34.652344 42.148438 -28.203125 C 42.148438 -21.542969 38.503906 -17.378906 33.40625 -17.378906 Z M 33.40625 -17.378906 "/></g></g></g><g fill="#005e6b" fill-opacity="1"><g transform="translate(181.228063, 251.19605)"><g><path d="M 35.070312 0.832031 C 42.460938 0.832031 51.410156 -0.519531 57.652344 -2.601562 C 58.796875 -3.019531 59.628906 -4.371094 59.527344 -5.828125 C 59.527344 -10.613281 59.109375 -17.378906 58.902344 -22.0625 C 58.796875 -24.769531 56.300781 -25.496094 54.636719 -23.726562 C 48.910156 -19.566406 43.082031 -18.003906 37.878906 -18.003906 C 29.761719 -18.003906 25.082031 -21.332031 25.082031 -27.265625 C 25.082031 -34.757812 29.035156 -38.921875 36.839844 -38.921875 C 41.417969 -38.921875 47.039062 -37.257812 50.160156 -35.488281 C 51.722656 -33.71875 53.90625 -34.445312 54.21875 -37.046875 C 54.738281 -41.105469 55.363281 -46.832031 55.78125 -50.785156 C 55.882812 -52.242188 55.050781 -53.800781 53.800781 -54.425781 C 49.222656 -56.300781 42.980469 -57.445312 35.382812 -57.445312 C 15.089844 -57.445312 1.25 -45.164062 1.25 -26.328125 C 1.25 -6.867188 14.984375 0.832031 35.070312 0.832031 Z M 35.070312 0.832031 "/></g></g></g><g fill="#005e6b" fill-opacity="1"><g transform="translate(246.163174, 251.19605)"><g><path d="M 16.234375 0.417969 C 19.148438 0.417969 23.933594 0.3125 26.746094 0 C 28.304688 -0.207031 29.554688 -1.351562 29.449219 -3.121094 C 28.929688 -9.78125 28.515625 -17.273438 28.515625 -22.894531 C 28.515625 -29.867188 31.84375 -35.175781 37.152344 -35.175781 C 42.5625 -35.175781 45.789062 -29.972656 45.894531 -22.894531 C 45.894531 -17.898438 45.164062 -10.09375 44.539062 -3.226562 C 44.4375 -1.457031 45.789062 -0.207031 47.351562 0 C 50.992188 0.3125 55.15625 0.417969 58.484375 0.417969 C 61.710938 0.417969 65.5625 0.3125 68.996094 0 C 70.453125 -0.207031 71.597656 -1.25 71.703125 -2.914062 C 71.804688 -11.136719 71.390625 -23.101562 70.972656 -29.035156 C 69.621094 -46.101562 62.542969 -57.339844 49.222656 -57.339844 C 41.003906 -57.339844 34.238281 -52.242188 30.699219 -42.042969 C 30.074219 -40.167969 28.410156 -40.480469 28.515625 -42.667969 C 28.722656 -51.097656 30.179688 -62.230469 31.53125 -71.078125 C 31.84375 -72.742188 30.492188 -74.09375 28.828125 -74.304688 C 25.496094 -74.511719 20.1875 -74.617188 17.585938 -74.617188 C 14.882812 -74.617188 9.886719 -74.511719 7.179688 -74.199219 C 5.722656 -73.992188 4.578125 -72.949219 4.476562 -71.390625 C 3.332031 -55.988281 2.082031 -27.578125 1.976562 -3.121094 C 1.976562 -1.457031 3.226562 -0.207031 4.785156 0 C 8.011719 0.207031 13.214844 0.417969 16.234375 0.417969 Z M 16.234375 0.417969 "/></g></g></g><g fill="#005e6b" fill-opacity="1"><g transform="translate(323.48169, 251.19605)"><g><path d="M 17.691406 0.832031 C 25.183594 0.832031 31.949219 -3.019531 35.382812 -12.28125 C 36.214844 -14.257812 37.671875 -13.839844 37.566406 -11.757812 C 37.359375 -9.574219 36.945312 -6.140625 36.632812 -4.164062 C 36.214844 -1.875 37.878906 -0.3125 40.480469 0 C 43.394531 0.3125 47.664062 0.417969 50.472656 0.417969 C 53.386719 0.417969 57.859375 0.3125 60.460938 0 C 62.128906 -0.3125 63.167969 -1.457031 63.167969 -3.226562 C 62.855469 -13.738281 61.816406 -28.203125 60.878906 -36.945312 C 59.628906 -48.808594 52.554688 -57.445312 31.324219 -57.445312 C 19.667969 -57.445312 11.550781 -55.78125 7.597656 -54.425781 C 6.347656 -53.90625 5.722656 -52.65625 5.621094 -51.097656 C 5.308594 -46.726562 4.996094 -41.105469 5.097656 -36.734375 C 5.097656 -33.925781 7.285156 -32.78125 9.054688 -34.652344 C 14.984375 -38.714844 23.519531 -41.105469 28.929688 -41.105469 C 34.863281 -41.105469 36.945312 -39.234375 36.945312 -37.257812 C 36.945312 -34.445312 33.507812 -33.71875 26.953125 -32.886719 C 12.90625 -31.21875 1.25 -25.703125 1.25 -14.882812 C 1.25 -3.953125 7.078125 0.832031 17.691406 0.832031 Z M 30.492188 -16.964844 C 27.160156 -16.964844 25.703125 -18.316406 25.703125 -21.4375 C 25.703125 -25.601562 29.660156 -28.617188 33.507812 -28.617188 C 36.007812 -28.617188 37.257812 -26.847656 37.257812 -24.558594 C 37.257812 -19.773438 33.09375 -16.964844 30.492188 -16.964844 Z M 30.492188 -16.964844 "/></g></g></g><g fill="#005e6b" fill-opacity="1"><g transform="translate(392.267105, 251.19605)"><g/></g></g><g fill="#005e6b" fill-opacity="1"><g transform="translate(425.255095, 251.19605)"><g><path d="M 16.128906 0.417969 C 18.835938 0.417969 25.289062 0.3125 28.304688 0 C 29.867188 -0.207031 31.53125 -1.25 31.21875 -3.539062 C 30.492188 -9.992188 29.761719 -16.441406 29.761719 -22.789062 C 29.761719 -26.640625 32.363281 -28.617188 36.320312 -28.722656 L 40.273438 -28.722656 C 44.226562 -28.617188 47.039062 -26.746094 47.039062 -22.789062 C 47.039062 -16.441406 46.207031 -9.992188 45.582031 -3.539062 C 45.269531 -1.25 46.832031 -0.207031 48.496094 0 C 51.410156 0.3125 57.859375 0.417969 60.460938 0.417969 C 63.167969 0.417969 68.476562 0.3125 71.492188 0 C 73.160156 -0.207031 74.617188 -1.351562 74.617188 -3.019531 C 74.617188 -28.097656 73.679688 -54.738281 71.910156 -70.140625 C 71.703125 -71.703125 70.453125 -72.640625 68.789062 -72.949219 C 66.082031 -73.160156 62.230469 -73.261719 59.839844 -73.261719 C 57.238281 -73.261719 51.617188 -73.261719 48.703125 -72.949219 C 46.726562 -72.640625 45.582031 -71.285156 45.789062 -69.308594 C 46.308594 -63.273438 47.039062 -56.714844 47.039062 -50.054688 C 47.039062 -46.101562 44.125 -44.332031 40.167969 -44.332031 C 39.128906 -44.226562 37.464844 -44.226562 36.421875 -44.332031 C 32.46875 -44.332031 29.554688 -46.101562 29.554688 -50.054688 C 29.660156 -56.714844 30.179688 -63.375 30.90625 -69.308594 C 31.21875 -71.183594 29.867188 -72.535156 27.992188 -72.847656 C 25.183594 -73.160156 19.566406 -73.261719 16.964844 -73.261719 C 14.464844 -73.261719 10.71875 -73.160156 7.910156 -72.847656 C 6.347656 -72.640625 4.996094 -71.703125 4.785156 -70.140625 C 3.019531 -54.738281 2.082031 -28.097656 2.082031 -3.019531 C 2.082031 -1.351562 3.539062 -0.207031 5.203125 0 C 8.222656 0.3125 13.425781 0.417969 16.128906 0.417969 Z M 16.128906 0.417969 "/></g></g></g><g fill="#005e6b" fill-opacity="1"><g transform="translate(505.799535, 251.19605)"><g><path d="M 33.40625 0.832031 C 52.136719 0.832031 65.457031 -6.765625 65.457031 -26.746094 C 65.457031 -45.582031 52.242188 -57.445312 33.40625 -57.445312 C 14.570312 -57.445312 1.25 -45.582031 1.25 -26.746094 C 1.25 -6.765625 14.671875 0.832031 33.40625 0.832031 Z M 33.40625 -17.378906 C 28.304688 -17.378906 24.664062 -21.542969 24.664062 -28.203125 C 24.664062 -34.652344 28.203125 -39.335938 33.40625 -39.335938 C 38.609375 -39.335938 42.148438 -34.652344 42.148438 -28.203125 C 42.148438 -21.542969 38.503906 -17.378906 33.40625 -17.378906 Z M 33.40625 -17.378906 "/></g></g></g><g fill="#005e6b" fill-opacity="1"><g transform="translate(576.353986, 251.19605)"><g><path d="M 23.3125 0.832031 C 31.636719 0.832031 37.984375 -4.371094 41.210938 -13.945312 C 41.9375 -15.921875 43.5 -15.816406 43.5 -13.632812 C 43.5 -10.40625 43.082031 -7.492188 42.25 -3.121094 C 41.835938 -1.25 43.394531 -0.207031 44.957031 0 C 48.183594 0.3125 53.074219 0.417969 55.988281 0.417969 C 58.796875 0.417969 63.792969 0.417969 66.394531 0 C 68.058594 -0.3125 69.101562 -1.5625 69.101562 -3.332031 C 69.101562 -18.835938 68.582031 -33.925781 67.019531 -53.59375 C 66.914062 -55.15625 65.769531 -56.402344 64.210938 -56.613281 C 61.398438 -56.925781 57.550781 -57.027344 54.949219 -57.027344 C 52.242188 -57.027344 46.933594 -56.925781 44.125 -56.613281 C 42.355469 -56.300781 41.210938 -55.15625 41.417969 -53.386719 C 42.25 -46.832031 42.773438 -38.296875 42.773438 -33.507812 C 42.773438 -26.640625 40.378906 -20.1875 35.589844 -20.1875 C 30.386719 -20.1875 28.097656 -26.015625 28.097656 -32.675781 C 28.097656 -38.089844 29.242188 -46.101562 30.699219 -53.386719 C 31.117188 -55.15625 29.761719 -56.402344 27.992188 -56.613281 C 25.082031 -56.925781 19.667969 -57.027344 17.171875 -57.027344 C 14.777344 -57.027344 9.992188 -56.925781 7.285156 -56.613281 C 5.722656 -56.402344 4.785156 -55.363281 4.578125 -53.699219 C 3.226562 -45.476562 2.082031 -32.46875 1.875 -24.664062 C 1.976562 -7.699219 9.46875 0.832031 23.3125 0.832031 Z M 23.3125 0.832031 "/></g></g></g><g fill="#005e6b" fill-opacity="1"><g transform="translate(651.174989, 251.19605)"><g><path d="M 30.492188 0.726562 C 49.433594 0.726562 59.941406 -5.515625 59.941406 -16.234375 C 59.941406 -35.589844 28.410156 -31.117188 28.410156 -37.671875 C 28.410156 -40.167969 31.636719 -41.625 37.878906 -41.523438 C 42.773438 -41.417969 48.390625 -39.859375 52.34375 -37.671875 C 54.113281 -36.320312 56.195312 -37.046875 56.09375 -39.648438 C 55.988281 -43.605469 55.570312 -48.597656 55.257812 -52.449219 C 55.15625 -53.699219 54.324219 -54.738281 53.074219 -55.15625 C 46.726562 -56.613281 37.257812 -57.339844 30.59375 -57.339844 C 13.425781 -57.339844 3.640625 -52.449219 3.640625 -41.625 C 3.640625 -22.789062 32.675781 -27.160156 32.675781 -20.5 C 32.675781 -17.796875 29.972656 -16.441406 24.351562 -16.441406 C 18.523438 -16.441406 11.550781 -18.417969 5.828125 -22.167969 C 4.164062 -23.625 1.664062 -23.101562 1.5625 -20.605469 C 1.457031 -15.507812 1.351562 -10.613281 1.457031 -5.515625 C 1.457031 -4.164062 2.289062 -3.226562 3.640625 -2.808594 C 11.03125 -0.726562 21.957031 0.726562 30.492188 0.726562 Z M 30.492188 0.726562 "/></g></g></g><g fill="#005e6b" fill-opacity="1"><g transform="translate(716.318248, 251.19605)"><g><path d="M 34.757812 0.832031 C 43.082031 0.832031 53.386719 -0.3125 59.214844 -3.746094 C 60.359375 -4.578125 60.984375 -5.722656 60.878906 -7.285156 C 60.671875 -10.925781 60.152344 -16.753906 59.734375 -20.398438 C 59.421875 -23.414062 57.132812 -24.144531 55.570312 -22.269531 C 50.367188 -17.691406 44.957031 -15.816406 37.671875 -15.816406 C 31.21875 -15.816406 24.144531 -18.941406 21.855469 -23.933594 C 20.710938 -25.808594 21.957031 -26.953125 23.625 -25.703125 C 27.785156 -23 32.574219 -21.75 37.566406 -21.75 C 48.496094 -21.75 58.695312 -28.304688 58.695312 -37.671875 C 58.695312 -50.890625 48.496094 -57.445312 32.050781 -57.445312 C 13.839844 -57.445312 1.25 -47.140625 1.25 -29.035156 C 1.25 -9.78125 14.152344 0.832031 34.757812 0.832031 Z M 31.53125 -29.972656 C 28.097656 -29.972656 23 -31.53125 23 -34.757812 C 23 -38.714844 26.847656 -41.523438 30.90625 -41.523438 C 35.589844 -41.523438 37.464844 -39.128906 37.464844 -35.488281 C 37.464844 -31.949219 35.070312 -29.972656 31.53125 -29.972656 Z M 31.53125 -29.972656 "/></g></g></g><g fill="#005e6b" fill-opacity="1"><g transform="translate(66.279761, 372.849357)"><g><path d="M 42.042969 0.726562 C 52.449219 0.726562 65.25 -1.5625 71.390625 -3.851562 C 72.429688 -4.371094 73.367188 -5.515625 73.261719 -6.972656 C 72.949219 -14.359375 72.742188 -21.644531 72.222656 -29.035156 C 72.015625 -32.15625 69.414062 -32.574219 67.957031 -30.804688 C 61.191406 -23.933594 53.90625 -21.332031 45.0625 -21.332031 C 35.070312 -21.332031 28.617188 -25.703125 28.617188 -35.070312 C 28.617188 -46.933594 34.132812 -53.179688 43.8125 -53.179688 C 51.199219 -53.179688 56.402344 -50.472656 60.878906 -45.996094 C 62.441406 -44.226562 64.625 -44.75 64.9375 -47.140625 C 65.5625 -51.722656 66.394531 -60.773438 67.019531 -65.355469 C 67.226562 -66.8125 66.8125 -68.164062 65.457031 -68.890625 C 59.421875 -71.910156 52.035156 -73.679688 42.355469 -73.679688 C 18.003906 -73.679688 1.351562 -57.964844 1.351562 -33.507812 C 1.351562 -8.222656 18.109375 0.726562 42.042969 0.726562 Z M 42.042969 0.726562 "/></g></g></g><g fill="#005e6b" fill-opacity="1"><g transform="translate(145.263264, 372.849357)"><g><path d="M 33.40625 0.832031 C 52.136719 0.832031 65.457031 -6.765625 65.457031 -26.746094 C 65.457031 -45.582031 52.242188 -57.445312 33.40625 -57.445312 C 14.570312 -57.445312 1.25 -45.582031 1.25 -26.746094 C 1.25 -6.765625 14.671875 0.832031 33.40625 0.832031 Z M 33.40625 -17.378906 C 28.304688 -17.378906 24.664062 -21.542969 24.664062 -28.203125 C 24.664062 -34.652344 28.203125 -39.335938 33.40625 -39.335938 C 38.609375 -39.335938 42.148438 -34.652344 42.148438 -28.203125 C 42.148438 -21.542969 38.503906 -17.378906 33.40625 -17.378906 Z M 33.40625 -17.378906 "/></g></g></g><g fill="#005e6b" fill-opacity="1"><g transform="translate(215.817731, 372.849357)"><g><path d="M 14.671875 0.417969 C 17.171875 0.417969 23 0.3125 26.015625 0 C 27.578125 -0.207031 29.035156 -1.457031 28.828125 -3.226562 C 28.410156 -8.636719 27.785156 -15.714844 27.890625 -21.023438 C 27.992188 -27.472656 29.867188 -32.363281 32.886719 -32.363281 C 36.421875 -32.363281 38.503906 -27.785156 38.714844 -21.023438 C 38.816406 -16.339844 38.402344 -8.742188 38.089844 -3.332031 C 37.984375 -1.457031 39.335938 -0.207031 41.003906 0 C 44.125 0.3125 49.535156 0.417969 52.34375 0.417969 C 54.84375 0.417969 59.628906 0.417969 62.542969 0 C 64.210938 -0.3125 65.667969 -1.457031 65.457031 -3.332031 C 64.9375 -9.679688 64.3125 -16.441406 64.3125 -21.332031 C 64.3125 -27.890625 66.5 -32.363281 69.414062 -32.363281 C 72.847656 -32.363281 74.929688 -28.097656 75.136719 -20.8125 C 75.242188 -16.441406 74.929688 -8.636719 74.617188 -3.332031 C 74.40625 -1.457031 75.65625 -0.3125 77.425781 0 C 80.445312 0.417969 86.0625 0.417969 88.664062 0.417969 C 91.164062 0.417969 95.949219 0.417969 98.863281 0 C 100.527344 -0.3125 101.882812 -1.457031 101.777344 -3.332031 C 101.152344 -16.027344 100.839844 -24.769531 99.382812 -34.757812 C 97.09375 -51.304688 89.601562 -57.027344 80.757812 -57.027344 C 72.742188 -57.027344 66.601562 -50.265625 64.417969 -41.105469 C 63.6875 -38.402344 62.128906 -38.296875 61.503906 -41.105469 C 58.589844 -53.179688 53.179688 -57.027344 45.683594 -57.027344 C 38.296875 -57.027344 32.574219 -50.265625 29.867188 -40.792969 C 29.140625 -38.191406 27.683594 -38.714844 27.683594 -41.105469 C 27.785156 -43.707031 28.722656 -49.535156 29.449219 -53.28125 C 29.867188 -55.050781 28.515625 -56.300781 26.746094 -56.613281 C 23.933594 -56.925781 18.210938 -57.027344 15.609375 -57.027344 C 13.007812 -57.027344 9.367188 -57.027344 6.765625 -56.613281 C 5.203125 -56.300781 4.164062 -55.363281 3.953125 -53.800781 C 2.707031 -40.691406 1.875 -23.625 1.875 -3.121094 C 1.875 -1.457031 3.019531 -0.207031 4.578125 0 C 7.390625 0.3125 12.382812 0.417969 14.671875 0.417969 Z M 14.671875 0.417969 "/></g></g></g><g fill="#005e6b" fill-opacity="1"><g transform="translate(323.210215, 372.849357)"><g><path d="M 14.671875 0.417969 C 17.171875 0.417969 23 0.3125 26.015625 0 C 27.578125 -0.207031 29.035156 -1.457031 28.828125 -3.226562 C 28.410156 -8.636719 27.785156 -15.714844 27.890625 -21.023438 C 27.992188 -27.472656 29.867188 -32.363281 32.886719 -32.363281 C 36.421875 -32.363281 38.503906 -27.785156 38.714844 -21.023438 C 38.816406 -16.339844 38.402344 -8.742188 38.089844 -3.332031 C 37.984375 -1.457031 39.335938 -0.207031 41.003906 0 C 44.125 0.3125 49.535156 0.417969 52.34375 0.417969 C 54.84375 0.417969 59.628906 0.417969 62.542969 0 C 64.210938 -0.3125 65.667969 -1.457031 65.457031 -3.332031 C 64.9375 -9.679688 64.3125 -16.441406 64.3125 -21.332031 C 64.3125 -27.890625 66.5 -32.363281 69.414062 -32.363281 C 72.847656 -32.363281 74.929688 -28.097656 75.136719 -20.8125 C 75.242188 -16.441406 74.929688 -8.636719 74.617188 -3.332031 C 74.40625 -1.457031 75.65625 -0.3125 77.425781 0 C 80.445312 0.417969 86.0625 0.417969 88.664062 0.417969 C 91.164062 0.417969 95.949219 0.417969 98.863281 0 C 100.527344 -0.3125 101.882812 -1.457031 101.777344 -3.332031 C 101.152344 -16.027344 100.839844 -24.769531 99.382812 -34.757812 C 97.09375 -51.304688 89.601562 -57.027344 80.757812 -57.027344 C 72.742188 -57.027344 66.601562 -50.265625 64.417969 -41.105469 C 63.6875 -38.402344 62.128906 -38.296875 61.503906 -41.105469 C 58.589844 -53.179688 53.179688 -57.027344 45.683594 -57.027344 C 38.296875 -57.027344 32.574219 -50.265625 29.867188 -40.792969 C 29.140625 -38.191406 27.683594 -38.714844 27.683594 -41.105469 C 27.785156 -43.707031 28.722656 -49.535156 29.449219 -53.28125 C 29.867188 -55.050781 28.515625 -56.300781 26.746094 -56.613281 C 23.933594 -56.925781 18.210938 -57.027344 15.609375 -57.027344 C 13.007812 -57.027344 9.367188 -57.027344 6.765625 -56.613281 C 5.203125 -56.300781 4.164062 -55.363281 3.953125 -53.800781 C 2.707031 -40.691406 1.875 -23.625 1.875 -3.121094 C 1.875 -1.457031 3.019531 -0.207031 4.578125 0 C 7.390625 0.3125 12.382812 0.417969 14.671875 0.417969 Z M 14.671875 0.417969 "/></g></g></g><g fill="#005e6b" fill-opacity="1"><g transform="translate(430.602684, 372.849357)"><g><path d="M 23.3125 0.832031 C 31.636719 0.832031 37.984375 -4.371094 41.210938 -13.945312 C 41.9375 -15.921875 43.5 -15.816406 43.5 -13.632812 C 43.5 -10.40625 43.082031 -7.492188 42.25 -3.121094 C 41.835938 -1.25 43.394531 -0.207031 44.957031 0 C 48.183594 0.3125 53.074219 0.417969 55.988281 0.417969 C 58.796875 0.417969 63.792969 0.417969 66.394531 0 C 68.058594 -0.3125 69.101562 -1.5625 69.101562 -3.332031 C 69.101562 -18.835938 68.582031 -33.925781 67.019531 -53.59375 C 66.914062 -55.15625 65.769531 -56.402344 64.210938 -56.613281 C 61.398438 -56.925781 57.550781 -57.027344 54.949219 -57.027344 C 52.242188 -57.027344 46.933594 -56.925781 44.125 -56.613281 C 42.355469 -56.300781 41.210938 -55.15625 41.417969 -53.386719 C 42.25 -46.832031 42.773438 -38.296875 42.773438 -33.507812 C 42.773438 -26.640625 40.378906 -20.1875 35.589844 -20.1875 C 30.386719 -20.1875 28.097656 -26.015625 28.097656 -32.675781 C 28.097656 -38.089844 29.242188 -46.101562 30.699219 -53.386719 C 31.117188 -55.15625 29.761719 -56.402344 27.992188 -56.613281 C 25.082031 -56.925781 19.667969 -57.027344 17.171875 -57.027344 C 14.777344 -57.027344 9.992188 -56.925781 7.285156 -56.613281 C 5.722656 -56.402344 4.785156 -55.363281 4.578125 -53.699219 C 3.226562 -45.476562 2.082031 -32.46875 1.875 -24.664062 C 1.976562 -7.699219 9.46875 0.832031 23.3125 0.832031 Z M 23.3125 0.832031 "/></g></g></g><g fill="#005e6b" fill-opacity="1"><g transform="translate(505.423686, 372.849357)"><g><path d="M 16.128906 0.417969 C 19.042969 0.417969 23.832031 0.3125 26.640625 0 C 28.203125 -0.207031 29.554688 -1.351562 29.347656 -3.121094 C 28.828125 -9.78125 28.515625 -16.652344 28.410156 -22.269531 C 28.410156 -29.242188 31.742188 -35.175781 37.152344 -35.175781 C 42.460938 -35.175781 45.683594 -29.347656 45.789062 -22.375 C 45.789062 -17.273438 45.164062 -10.09375 44.539062 -3.226562 C 44.4375 -1.457031 45.789062 -0.207031 47.351562 0 C 50.992188 0.3125 55.050781 0.417969 58.382812 0.417969 C 61.609375 0.417969 65.457031 0.3125 68.890625 0 C 70.453125 -0.207031 71.492188 -1.144531 71.597656 -2.808594 C 71.703125 -11.03125 71.390625 -23.101562 70.871094 -29.035156 C 69.515625 -46.101562 62.441406 -57.339844 49.222656 -57.339844 C 40.898438 -57.339844 34.238281 -52.242188 30.699219 -42.042969 C 29.972656 -40.167969 28.410156 -40.273438 28.410156 -42.460938 C 28.515625 -45.789062 29.035156 -47.976562 30.492188 -53.074219 C 31.011719 -54.738281 29.554688 -56.507812 27.890625 -56.613281 C 24.664062 -56.925781 20.085938 -57.027344 17.484375 -57.027344 C 14.777344 -57.027344 9.78125 -56.925781 7.179688 -56.613281 C 5.621094 -56.402344 4.683594 -55.050781 4.371094 -53.492188 C 2.808594 -41.316406 1.976562 -27.578125 1.976562 -3.121094 C 1.875 -1.457031 3.121094 -0.207031 4.683594 0 C 7.910156 0.3125 13.113281 0.417969 16.128906 0.417969 Z M 16.128906 0.417969 "/></g></g></g><g fill="#005e6b" fill-opacity="1"><g transform="translate(582.63812, 372.849357)"><g><path d="M 15.609375 -60.046875 C 23.933594 -60.046875 28.203125 -64.417969 28.203125 -70.347656 C 28.203125 -76.175781 23.933594 -80.546875 15.609375 -80.546875 C 7.390625 -80.546875 3.226562 -76.175781 3.226562 -70.347656 C 3.226562 -64.417969 7.390625 -60.046875 15.609375 -60.046875 Z M 15.921875 0.417969 C 18.523438 0.417969 23.414062 0.3125 26.433594 0 C 27.890625 -0.207031 29.140625 -1.457031 29.140625 -3.019531 C 29.140625 -23.3125 28.097656 -40.792969 27.058594 -53.90625 C 26.953125 -55.363281 25.914062 -56.402344 24.351562 -56.613281 C 22.0625 -56.925781 17.898438 -57.027344 15.816406 -57.027344 C 13.320312 -57.027344 9.46875 -56.925781 6.867188 -56.613281 C 5.410156 -56.402344 4.265625 -55.363281 4.164062 -53.90625 C 3.121094 -40.792969 2.082031 -23.3125 2.082031 -3.019531 C 2.082031 -1.457031 3.332031 -0.207031 4.890625 0 C 8.011719 0.3125 13.320312 0.417969 15.921875 0.417969 Z M 15.921875 0.417969 "/></g></g></g><g fill="#005e6b" fill-opacity="1"><g transform="translate(617.81141, 372.849357)"><g><path d="M 33.507812 0.832031 C 39.960938 0.832031 45.789062 -0.105469 51.097656 -1.5625 C 52.34375 -2.082031 53.386719 -3.433594 53.386719 -5.308594 C 53.492188 -8.742188 53.59375 -15.507812 53.492188 -19.355469 C 53.386719 -21.855469 51.410156 -22.6875 49.847656 -21.542969 C 48.078125 -20.605469 44.644531 -19.667969 42.460938 -19.667969 C 38.089844 -19.667969 34.757812 -21.75 34.550781 -25.914062 C 34.34375 -29.140625 34.34375 -32.886719 34.652344 -36.527344 C 34.863281 -38.296875 36.007812 -39.441406 38.191406 -39.441406 C 41.417969 -39.441406 46.414062 -39.234375 49.640625 -39.023438 C 51.199219 -38.816406 52.554688 -40.378906 52.554688 -42.042969 L 52.554688 -53.699219 C 52.554688 -55.363281 51.199219 -56.714844 49.640625 -56.714844 C 45.582031 -56.714844 40.792969 -56.507812 36.734375 -56.507812 C 35.902344 -56.507812 35.277344 -57.339844 35.277344 -58.589844 C 35.277344 -61.191406 35.800781 -63.792969 36.320312 -66.707031 C 36.527344 -68.371094 35.175781 -69.828125 33.507812 -70.035156 C 30.59375 -70.347656 24.976562 -70.453125 22.375 -70.453125 C 19.875 -70.347656 16.027344 -70.347656 13.527344 -70.035156 C 12.070312 -69.828125 10.925781 -68.683594 10.71875 -67.226562 C 10.40625 -64.523438 10.199219 -60.773438 10.09375 -57.964844 C 9.992188 -57.238281 9.46875 -56.613281 8.636719 -56.613281 L 3.539062 -56.613281 C 1.976562 -56.613281 0.832031 -55.363281 0.726562 -53.800781 C 0.726562 -49.847656 0.625 -45.996094 0.726562 -42.148438 C 0.832031 -40.585938 1.976562 -39.234375 3.539062 -39.234375 C 4.996094 -39.335938 6.453125 -39.335938 7.804688 -39.335938 C 8.636719 -39.441406 9.367188 -38.816406 9.261719 -37.984375 C 8.429688 -31.53125 8.429688 -24.871094 8.429688 -20.5 C 8.429688 -5.621094 19.253906 0.832031 33.507812 0.832031 Z M 33.507812 0.832031 "/></g></g></g><g fill="#005e6b" fill-opacity="1"><g transform="translate(675.982474, 372.849357)"><g><path d="M 31.742188 24.769531 C 51.929688 24.769531 69.414062 15.089844 69.414062 -4.265625 C 69.414062 -18.941406 68.996094 -33.925781 67.226562 -53.59375 C 67.125 -55.15625 66.082031 -56.402344 64.417969 -56.613281 C 61.609375 -56.925781 57.757812 -57.027344 55.15625 -57.027344 C 52.34375 -57.027344 47.140625 -56.925781 44.226562 -56.613281 C 42.5625 -56.300781 41.417969 -55.15625 41.625 -53.386719 C 42.355469 -46.832031 42.980469 -38.609375 42.980469 -33.820312 C 42.980469 -26.953125 40.691406 -20.1875 35.902344 -20.1875 C 30.59375 -20.1875 28.410156 -26.328125 28.410156 -33.09375 C 28.410156 -38.402344 29.554688 -46.101562 31.011719 -53.386719 C 31.429688 -55.15625 30.074219 -56.402344 28.304688 -56.613281 C 25.390625 -56.925781 19.875 -57.027344 17.484375 -57.027344 C 15.089844 -57.027344 10.300781 -56.925781 7.492188 -56.613281 C 6.035156 -56.402344 5.097656 -55.363281 4.785156 -53.699219 C 3.539062 -45.476562 2.394531 -32.78125 2.183594 -24.976562 C 2.289062 -8.949219 9.78125 -0.519531 23.519531 -0.519531 C 31.949219 -0.519531 38.714844 -4.996094 41.417969 -14.359375 C 42.042969 -16.441406 43.8125 -16.339844 43.8125 -14.152344 L 43.8125 -10.824219 C 43.8125 -2.394531 34.238281 5.410156 24.457031 5.410156 C 17.691406 5.410156 10.613281 3.332031 5.828125 0.625 C 4.058594 -0.832031 2.082031 0.519531 1.976562 2.707031 C 1.769531 7.597656 1.351562 14.984375 1.25 18.941406 C 1.144531 20.292969 2.082031 21.644531 3.332031 22.0625 C 10.09375 23.832031 24.144531 24.769531 31.742188 24.769531 Z M 31.742188 24.769531 "/></g></g></g><g fill="#005e6b" fill-opacity="1"><g transform="translate(179.862866, 494.502664)"><g><path d="M 34.03125 0.417969 C 43.707031 0.417969 61.085938 0.417969 68.058594 0 C 69.726562 -0.105469 70.871094 -1.351562 70.765625 -2.914062 C 70.558594 -9.574219 69.828125 -24.039062 69.101562 -30.804688 C 68.890625 -33.820312 65.667969 -34.34375 64.210938 -31.949219 C 58.902344 -23.625 53.386719 -20.917969 42.667969 -20.917969 C 33.613281 -20.917969 29.035156 -24.457031 29.035156 -31.429688 C 28.929688 -44.75 31.429688 -54.949219 34.550781 -69.414062 C 34.964844 -71.078125 33.507812 -72.640625 31.636719 -72.847656 C 28.304688 -73.160156 25.496094 -73.261719 21.644531 -73.261719 C 16.128906 -73.261719 12.070312 -73.261719 7.804688 -72.847656 C 6.242188 -72.640625 4.996094 -71.804688 4.785156 -70.246094 C 3.332031 -54.113281 2.289062 -26.535156 2.082031 -3.019531 C 2.082031 -1.351562 3.433594 -0.105469 5.097656 0 C 10.71875 0.417969 26.535156 0.417969 34.03125 0.417969 Z M 34.03125 0.417969 "/></g></g></g><g fill="#005e6b" fill-opacity="1"><g transform="translate(255.932624, 494.502664)"><g><path d="M 15.609375 -60.046875 C 23.933594 -60.046875 28.203125 -64.417969 28.203125 -70.347656 C 28.203125 -76.175781 23.933594 -80.546875 15.609375 -80.546875 C 7.390625 -80.546875 3.226562 -76.175781 3.226562 -70.347656 C 3.226562 -64.417969 7.390625 -60.046875 15.609375 -60.046875 Z M 15.921875 0.417969 C 18.523438 0.417969 23.414062 0.3125 26.433594 0 C 27.890625 -0.207031 29.140625 -1.457031 29.140625 -3.019531 C 29.140625 -23.3125 28.097656 -40.792969 27.058594 -53.90625 C 26.953125 -55.363281 25.914062 -56.402344 24.351562 -56.613281 C 22.0625 -56.925781 17.898438 -57.027344 15.816406 -57.027344 C 13.320312 -57.027344 9.46875 -56.925781 6.867188 -56.613281 C 5.410156 -56.402344 4.265625 -55.363281 4.164062 -53.90625 C 3.121094 -40.792969 2.082031 -23.3125 2.082031 -3.019531 C 2.082031 -1.457031 3.332031 -0.207031 4.890625 0 C 8.011719 0.3125 13.320312 0.417969 15.921875 0.417969 Z M 15.921875 0.417969 "/></g></g></g><g fill="#005e6b" fill-opacity="1"><g transform="translate(291.105931, 494.502664)"><g><path d="M 49.328125 0.832031 C 62.648438 0.832031 71.703125 -8.535156 71.703125 -27.058594 C 71.703125 -45.894531 62.960938 -57.339844 49.433594 -57.339844 C 40.378906 -57.339844 34.964844 -53.074219 31.011719 -44.644531 C 29.867188 -42.667969 28.203125 -42.5625 28.304688 -45.375 C 28.617188 -53.699219 29.972656 -63.898438 31.21875 -70.972656 C 31.53125 -72.640625 30.074219 -73.992188 28.410156 -74.304688 C 25.390625 -74.617188 19.773438 -74.617188 17.171875 -74.617188 C 14.464844 -74.617188 9.992188 -74.617188 7.179688 -74.199219 C 5.722656 -73.992188 4.578125 -72.949219 4.476562 -71.390625 C 3.226562 -56.300781 2.082031 -27.683594 2.082031 -3.121094 C 2.082031 -1.351562 3.226562 -0.207031 4.785156 0 C 8.011719 0.3125 13.527344 0.417969 16.234375 0.417969 C 18.941406 0.417969 23.832031 0.3125 26.640625 0 C 28.304688 -0.207031 29.660156 -1.457031 29.347656 -3.226562 C 28.929688 -5.621094 28.617188 -8.222656 28.515625 -10.511719 C 28.304688 -13.007812 29.867188 -13.320312 31.011719 -11.136719 C 34.550781 -3.746094 40.898438 0.832031 49.328125 0.832031 Z M 37.046875 -18.417969 C 32.050781 -18.417969 28.617188 -22.0625 28.617188 -27.992188 C 28.617188 -33.925781 32.050781 -37.984375 37.046875 -37.984375 C 42.25 -37.984375 45.582031 -33.925781 45.582031 -27.992188 C 45.582031 -22.0625 42.148438 -18.417969 37.046875 -18.417969 Z M 37.046875 -18.417969 "/></g></g></g><g fill="#005e6b" fill-opacity="1"><g transform="translate(367.904134, 494.502664)"><g><path d="M 15.921875 0.417969 C 18.835938 0.417969 24.558594 0.417969 27.371094 0.105469 C 28.929688 -0.105469 30.492188 -1.457031 30.179688 -3.433594 C 29.347656 -8.535156 28.617188 -14.777344 28.617188 -21.230469 C 28.617188 -29.140625 34.652344 -34.132812 40.585938 -34.132812 C 45.476562 -34.132812 48.910156 -32.261719 52.136719 -29.347656 C 53.59375 -27.472656 56.195312 -28.410156 56.402344 -30.90625 C 56.925781 -37.257812 57.445312 -43.605469 57.859375 -50.054688 C 57.859375 -51.511719 57.445312 -52.761719 56.300781 -53.800781 C 53.90625 -55.988281 50.472656 -57.339844 46.207031 -57.339844 C 38.296875 -57.339844 33.09375 -51.199219 30.492188 -39.648438 C 29.972656 -37.671875 28.410156 -37.777344 28.410156 -40.066406 C 28.410156 -44.4375 28.828125 -48.390625 29.761719 -53.179688 C 30.179688 -54.84375 29.035156 -56.402344 27.058594 -56.613281 C 24.769531 -56.925781 18.628906 -57.027344 16.339844 -57.027344 C 13.945312 -57.027344 9.46875 -57.027344 6.765625 -56.613281 C 5.308594 -56.402344 4.164062 -55.363281 4.058594 -53.90625 C 2.707031 -39.546875 1.976562 -25.289062 1.875 -3.019531 C 1.875 -1.351562 3.121094 -0.207031 4.578125 0 C 7.804688 0.207031 13.320312 0.417969 15.921875 0.417969 Z M 15.921875 0.417969 "/></g></g></g><g fill="#005e6b" fill-opacity="1"><g transform="translate(430.757994, 494.502664)"><g><path d="M 17.691406 0.832031 C 25.183594 0.832031 31.949219 -3.019531 35.382812 -12.28125 C 36.214844 -14.257812 37.671875 -13.839844 37.566406 -11.757812 C 37.359375 -9.574219 36.945312 -6.140625 36.632812 -4.164062 C 36.214844 -1.875 37.878906 -0.3125 40.480469 0 C 43.394531 0.3125 47.664062 0.417969 50.472656 0.417969 C 53.386719 0.417969 57.859375 0.3125 60.460938 0 C 62.128906 -0.3125 63.167969 -1.457031 63.167969 -3.226562 C 62.855469 -13.738281 61.816406 -28.203125 60.878906 -36.945312 C 59.628906 -48.808594 52.554688 -57.445312 31.324219 -57.445312 C 19.667969 -57.445312 11.550781 -55.78125 7.597656 -54.425781 C 6.347656 -53.90625 5.722656 -52.65625 5.621094 -51.097656 C 5.308594 -46.726562 4.996094 -41.105469 5.097656 -36.734375 C 5.097656 -33.925781 7.285156 -32.78125 9.054688 -34.652344 C 14.984375 -38.714844 23.519531 -41.105469 28.929688 -41.105469 C 34.863281 -41.105469 36.945312 -39.234375 36.945312 -37.257812 C 36.945312 -34.445312 33.507812 -33.71875 26.953125 -32.886719 C 12.90625 -31.21875 1.25 -25.703125 1.25 -14.882812 C 1.25 -3.953125 7.078125 0.832031 17.691406 0.832031 Z M 30.492188 -16.964844 C 27.160156 -16.964844 25.703125 -18.316406 25.703125 -21.4375 C 25.703125 -25.601562 29.660156 -28.617188 33.507812 -28.617188 C 36.007812 -28.617188 37.257812 -26.847656 37.257812 -24.558594 C 37.257812 -19.773438 33.09375 -16.964844 30.492188 -16.964844 Z M 30.492188 -16.964844 "/></g></g></g><g fill="#005e6b" fill-opacity="1"><g transform="translate(499.543408, 494.502664)"><g><path d="M 15.921875 0.417969 C 18.835938 0.417969 24.558594 0.417969 27.371094 0.105469 C 28.929688 -0.105469 30.492188 -1.457031 30.179688 -3.433594 C 29.347656 -8.535156 28.617188 -14.777344 28.617188 -21.230469 C 28.617188 -29.140625 34.652344 -34.132812 40.585938 -34.132812 C 45.476562 -34.132812 48.910156 -32.261719 52.136719 -29.347656 C 53.59375 -27.472656 56.195312 -28.410156 56.402344 -30.90625 C 56.925781 -37.257812 57.445312 -43.605469 57.859375 -50.054688 C 57.859375 -51.511719 57.445312 -52.761719 56.300781 -53.800781 C 53.90625 -55.988281 50.472656 -57.339844 46.207031 -57.339844 C 38.296875 -57.339844 33.09375 -51.199219 30.492188 -39.648438 C 29.972656 -37.671875 28.410156 -37.777344 28.410156 -40.066406 C 28.410156 -44.4375 28.828125 -48.390625 29.761719 -53.179688 C 30.179688 -54.84375 29.035156 -56.402344 27.058594 -56.613281 C 24.769531 -56.925781 18.628906 -57.027344 16.339844 -57.027344 C 13.945312 -57.027344 9.46875 -57.027344 6.765625 -56.613281 C 5.308594 -56.402344 4.164062 -55.363281 4.058594 -53.90625 C 2.707031 -39.546875 1.976562 -25.289062 1.875 -3.019531 C 1.875 -1.351562 3.121094 -0.207031 4.578125 0 C 7.804688 0.207031 13.320312 0.417969 15.921875 0.417969 Z M 15.921875 0.417969 "/></g></g></g><g fill="#005e6b" fill-opacity="1"><g transform="translate(562.397285, 494.502664)"><g><path d="M 31.742188 24.769531 C 51.929688 24.769531 69.414062 15.089844 69.414062 -4.265625 C 69.414062 -18.941406 68.996094 -33.925781 67.226562 -53.59375 C 67.125 -55.15625 66.082031 -56.402344 64.417969 -56.613281 C 61.609375 -56.925781 57.757812 -57.027344 55.15625 -57.027344 C 52.34375 -57.027344 47.140625 -56.925781 44.226562 -56.613281 C 42.5625 -56.300781 41.417969 -55.15625 41.625 -53.386719 C 42.355469 -46.832031 42.980469 -38.609375 42.980469 -33.820312 C 42.980469 -26.953125 40.691406 -20.1875 35.902344 -20.1875 C 30.59375 -20.1875 28.410156 -26.328125 28.410156 -33.09375 C 28.410156 -38.402344 29.554688 -46.101562 31.011719 -53.386719 C 31.429688 -55.15625 30.074219 -56.402344 28.304688 -56.613281 C 25.390625 -56.925781 19.875 -57.027344 17.484375 -57.027344 C 15.089844 -57.027344 10.300781 -56.925781 7.492188 -56.613281 C 6.035156 -56.402344 5.097656 -55.363281 4.785156 -53.699219 C 3.539062 -45.476562 2.394531 -32.78125 2.183594 -24.976562 C 2.289062 -8.949219 9.78125 -0.519531 23.519531 -0.519531 C 31.949219 -0.519531 38.714844 -4.996094 41.417969 -14.359375 C 42.042969 -16.441406 43.8125 -16.339844 43.8125 -14.152344 L 43.8125 -10.824219 C 43.8125 -2.394531 34.238281 5.410156 24.457031 5.410156 C 17.691406 5.410156 10.613281 3.332031 5.828125 0.625 C 4.058594 -0.832031 2.082031 0.519531 1.976562 2.707031 C 1.769531 7.597656 1.351562 14.984375 1.25 18.941406 C 1.144531 20.292969 2.082031 21.644531 3.332031 22.0625 C 10.09375 23.832031 24.144531 24.769531 31.742188 24.769531 Z M 31.742188 24.769531 "/></g></g></g><path fill="#fcf1c6" d="M 747.015625 379.351562 L 766.972656 379.351562 L 766.972656 392.839844 L 747.015625 392.839844 Z M 747.015625 379.351562 " fill-opacity="1" fill-rule="nonzero"/><path fill="#ffa98b" d="M 839.964844 379.558594 C 839.964844 379.558594 846.414062 386.199219 841.3125 395.742188 L 744.734375 394.085938 L 744.734375 391.386719 L 763.859375 391.59375 C 763.859375 391.59375 768.441406 388.894531 764.074219 380.597656 L 744.734375 380.804688 L 744.734375 377.492188 Z M 839.964844 379.558594 " fill-opacity="1" fill-rule="nonzero"/><path fill="#a4aea8" d="M 840.378906 412.476562 C 840.378906 412.476562 843.808594 419.648438 840.378906 425.410156 L 764.769531 423.796875 C 764.28125 421.527344 764.207031 419.242188 764.554688 416.945312 C 764.902344 414.648438 765.648438 412.488281 766.789062 410.460938 Z M 840.378906 412.476562 " fill-opacity="1" fill-rule="nonzero"/><path fill="#e9a88a" d="M 844.082031 394.324219 L 760.621094 394.324219 L 760.621094 411.601562 L 844.082031 413.765625 C 844.082031 413.765625 847.980469 401.050781 844.082031 394.324219 Z M 844.082031 394.324219 " fill-opacity="1" fill-rule="nonzero"/><path fill="#fc7b4b" d="M 818.28125 367.328125 C 818.28125 367.328125 821.710938 374.511719 818.28125 380.273438 L 742.707031 378.648438 C 742.210938 376.375 742.140625 374.089844 742.488281 371.792969 C 742.835938 369.492188 743.582031 367.332031 744.726562 365.304688 Z M 818.28125 367.328125 " fill-opacity="1" fill-rule="nonzero"/><path fill="#e2d0b5" d="M 835.339844 455.835938 L 855.296875 455.835938 L 855.296875 469.324219 L 835.339844 469.324219 Z M 835.339844 455.835938 " fill-opacity="1" fill-rule="nonzero"/><path fill="#2f4fa6" d="M 762.359375 456.042969 C 762.359375 456.042969 755.910156 462.683594 761.003906 472.226562 L 857.589844 470.558594 L 857.589844 467.859375 L 838.457031 468.078125 C 838.457031 468.078125 833.886719 465.378906 838.25 457.082031 L 857.589844 457.289062 L 857.589844 453.972656 Z M 762.359375 456.042969 " fill-opacity="1" fill-rule="nonzero"/><path fill="#f4e8d1" d="M 838.359375 437.097656 L 836.707031 454.179688 L 796.03125 457.300781 L 795.109375 450.691406 L 799.714844 440.769531 Z M 838.359375 437.097656 " fill-opacity="1" fill-rule="nonzero"/><path fill="#e2d0b5" d="M 854.722656 514.957031 L 853.0625 532.027344 L 812.386719 535.148438 L 811.472656 528.539062 L 816.066406 518.628906 Z M 854.722656 514.957031 " fill-opacity="1" fill-rule="nonzero"/><path fill="#be4827" d="M 750.480469 518.097656 L 743.878906 520.199219 C 743.878906 520.199219 737.875 526.179688 743.878906 535.460938 C 743.878906 535.460938 805.382812 538.160156 822.179688 535.460938 L 855.1875 533.664062 L 855.1875 530.675781 L 825.785156 533.664062 L 820.984375 531.574219 L 820.984375 521.695312 L 824.589844 519.605469 L 857.589844 516.601562 L 857.589844 513.355469 L 766.074219 514.785156 Z M 750.480469 518.097656 " fill-opacity="1" fill-rule="nonzero"/><path fill="#8e311b" d="M 749.339844 520.71875 C 749.339844 520.71875 754.257812 519.082031 756.539062 520.71875 C 755.902344 523.410156 755.652344 526.136719 755.777344 528.898438 C 755.925781 530.511719 756.175781 532.105469 756.539062 533.683594 L 749.339844 533.683594 C 749.339844 533.683594 746.320312 528.863281 749.339844 520.71875 Z M 749.339844 520.71875 " fill-opacity="1" fill-rule="nonzero"/><path fill="#f4e8d1" d="M 826.578125 500.441406 L 846.535156 500.441406 L 846.535156 513.929688 L 826.578125 513.929688 Z M 826.578125 500.441406 " fill-opacity="1" fill-rule="nonzero"/><path fill="#5aa780" d="M 753.597656 500.703125 C 753.597656 500.703125 747.148438 507.34375 752.238281 516.886719 L 848.878906 515.21875 L 848.878906 512.519531 L 829.746094 512.738281 C 829.746094 512.738281 825.175781 510.039062 829.542969 501.742188 L 848.878906 501.949219 L 848.878906 498.535156 Z M 753.597656 500.703125 " fill-opacity="1" fill-rule="nonzero"/><path fill="#ffd0c9" d="M 761.980469 488.960938 C 761.980469 488.960938 758.546875 496.132812 761.980469 501.894531 L 837.554688 500.269531 C 838.046875 498 838.117188 495.71875 837.769531 493.421875 C 837.421875 491.128906 836.675781 488.96875 835.535156 486.945312 Z M 761.980469 488.960938 " fill-opacity="1" fill-rule="nonzero"/><path fill="#e5cea8" d="M 758.242188 470.804688 L 841.703125 470.804688 L 841.703125 488.074219 L 758.242188 490.238281 C 758.242188 490.238281 754.398438 477.523438 758.242188 470.804688 Z M 758.242188 470.804688 " fill-opacity="1" fill-rule="nonzero"/><path fill="#9fe4cf" d="M 734.117188 440.25 L 727.515625 442.339844 C 727.515625 442.339844 721.519531 448.332031 727.515625 457.601562 C 727.515625 457.601562 789.027344 460.300781 805.828125 457.601562 L 838.824219 455.816406 L 838.824219 452.816406 L 809.429688 455.816406 L 804.621094 453.714844 L 804.621094 443.835938 L 808.226562 441.746094 L 841.226562 438.753906 L 841.226562 435.503906 L 749.71875 437 Z M 734.117188 440.25 " fill-opacity="1" fill-rule="nonzero"/><path fill="#009e8d" d="M 732.988281 442.871094 C 732.988281 442.871094 737.90625 441.234375 740.175781 442.871094 C 739.539062 445.5625 739.285156 448.289062 739.414062 451.050781 C 739.558594 452.660156 739.8125 454.25 740.175781 455.824219 L 732.988281 455.824219 C 732.988281 455.824219 729.957031 451.050781 732.988281 442.871094 Z M 732.988281 442.871094 " fill-opacity="1" fill-rule="nonzero"/><path fill="#f4e8d1" d="M 755.8125 424.242188 L 775.769531 424.242188 L 775.769531 437.726562 L 755.8125 437.726562 Z M 755.8125 424.242188 " fill-opacity="1" fill-rule="nonzero"/><path fill="#f0a72a" d="M 848.761719 424.457031 C 848.761719 424.457031 855.199219 431.085938 850.109375 440.628906 L 753.507812 438.960938 L 753.507812 436.265625 L 772.632812 436.46875 C 772.632812 436.46875 777.203125 433.773438 772.839844 425.476562 L 753.507812 425.691406 L 753.507812 422.367188 Z M 848.761719 424.457031 " fill-opacity="1" fill-rule="nonzero"/><path fill="#7396f1" d="M 752.023438 325.617188 C 752.023438 325.617188 747.796875 328.996094 749.449219 333.382812 L 811.472656 352.773438 C 811.898438 352.15625 812.246094 351.496094 812.511719 350.792969 C 812.777344 350.089844 812.953125 349.367188 813.039062 348.625 C 813.128906 347.878906 813.125 347.132812 813.03125 346.390625 C 812.9375 345.648438 812.753906 344.925781 812.484375 344.226562 Z M 752.023438 325.617188 " fill-opacity="1" fill-rule="nonzero"/><path fill="#19100f" d="M 858.230469 314.65625 C 858.230469 314.65625 872.890625 300.683594 884.019531 322.691406 C 888 332.914062 890.628906 343.472656 891.914062 354.363281 L 862.824219 360.363281 C 862.824219 360.363281 842.125 326.96875 858.230469 314.65625 Z M 858.230469 314.65625 " fill-opacity="1" fill-rule="nonzero"/><path fill="#e68e70" d="M 828.824219 340.542969 L 820.898438 337.238281 L 814.210938 331.605469 L 804.339844 332.167969 L 803.210938 333.644531 L 812.503906 335.117188 L 806.273438 336.070312 L 806.152344 337.824219 L 817.269531 340.542969 L 826.785156 344.617188 Z M 828.824219 340.542969 " fill-opacity="1" fill-rule="nonzero"/><g clip-path="url(#aaefaa7df4)"><path fill="#594a42" d="M 840.941406 348.253906 L 848.792969 539.480469 L 854.332031 539.480469 L 846.328125 348.253906 Z M 840.941406 348.253906 " fill-opacity="1" fill-rule="nonzero"/></g><path fill="#594a42" d="M 869.445312 348.253906 L 900.523438 536.640625 L 894.238281 536.640625 L 863.648438 348.253906 Z M 869.445312 348.253906 " fill-opacity="1" fill-rule="nonzero"/><path fill="#594a42" d="M 871.5 380.707031 L 844.40625 383.261719 L 844.40625 388.105469 L 871.5 385.808594 Z M 871.5 380.707031 " fill-opacity="1" fill-rule="nonzero"/><path fill="#594a42" d="M 875.59375 409.269531 L 845.9375 412.066406 L 845.9375 416.917969 L 875.59375 414.113281 Z M 875.59375 409.269531 " fill-opacity="1" fill-rule="nonzero"/><path fill="#594a42" d="M 880.1875 433.738281 L 847.644531 437.054688 L 847.644531 441.355469 L 880.1875 437.550781 Z M 880.1875 433.738281 " fill-opacity="1" fill-rule="nonzero"/><path fill="#594a42" d="M 884.019531 458.988281 L 847.644531 461.273438 L 847.644531 465.867188 L 884.019531 463.570312 Z M 884.019531 458.988281 " fill-opacity="1" fill-rule="nonzero"/><path fill="#594a42" d="M 888.621094 484.996094 L 849.519531 489.816406 L 849.519531 494.941406 L 888.621094 489.816406 Z M 888.621094 484.996094 " fill-opacity="1" fill-rule="nonzero"/><path fill="#594a42" d="M 892.457031 509.726562 L 849.519531 515.074219 L 851.300781 520.425781 L 892.457031 515.074219 Z M 892.457031 509.726562 " fill-opacity="1" fill-rule="nonzero"/><path fill="#e68e70" d="M 875.039062 476.570312 L 875.039062 481.203125 L 865.753906 486.511719 L 865.753906 489.871094 L 871.671875 488.332031 L 879.882812 486.046875 L 882.054688 485.949219 C 882.230469 485.941406 882.394531 485.898438 882.550781 485.816406 C 882.707031 485.738281 882.84375 485.628906 882.953125 485.492188 C 883.0625 485.355469 883.140625 485.203125 883.183594 485.035156 C 883.226562 484.863281 883.234375 484.691406 883.203125 484.519531 L 881.804688 476.546875 Z M 875.039062 476.570312 " fill-opacity="1" fill-rule="nonzero"/><g clip-path="url(#a8107f9265)"><path fill="#e68e70" d="M 930.363281 401.535156 L 932.609375 400.269531 L 935.847656 397.226562 L 939.832031 397.226562 L 942.632812 406.195312 L 944.023438 411.761719 L 947.226562 418.132812 L 942.230469 419.917969 L 934.445312 405.652344 L 932.6875 407.417969 Z M 930.363281 401.535156 " fill-opacity="1" fill-rule="nonzero"/></g><path fill="#2f4fa6" d="M 891.902344 380.230469 C 891.902344 380.230469 900.699219 390.726562 902.011719 401.472656 L 909.101562 413.515625 L 932.609375 400.269531 L 934.445312 405.683594 C 934.445312 405.683594 913.304688 427.695312 904.640625 425.59375 C 895.972656 423.492188 880.480469 399.933594 880.480469 399.933594 L 878.382812 384.5625 Z M 891.902344 380.230469 " fill-opacity="1" fill-rule="nonzero"/><path fill="#3c62b5" d="M 865.753906 384.5625 L 870.574219 440.964844 L 874.375 480.273438 L 883 480.273438 L 886.84375 406.972656 C 886.84375 406.972656 892.890625 393.53125 888.621094 382.191406 Z M 865.753906 384.5625 " fill-opacity="1" fill-rule="nonzero"/><path fill="#fc7b4b" d="M 862.007812 348.632812 L 842.984375 345.589844 L 824.523438 335.84375 L 819.726562 345.167969 L 841.617188 355.890625 L 863.671875 364.742188 C 863.671875 364.742188 867.523438 354.09375 862.007812 348.632812 Z M 862.007812 348.632812 " fill-opacity="1" fill-rule="nonzero"/><path fill="#d88068" d="M 871.5 332.808594 L 875.398438 347.246094 L 865.894531 348.253906 L 862.824219 335.886719 Z M 871.5 332.808594 " fill-opacity="1" fill-rule="nonzero"/><path fill="#fc7b4b" d="M 858.511719 350.789062 L 868.023438 344.90625 L 876.875 342.613281 C 876.875 342.613281 883.105469 342.949219 885.398438 346.707031 C 887.6875 350.464844 900.523438 393.855469 900.523438 393.855469 L 863.289062 399.5 Z M 858.511719 350.789062 " fill-opacity="1" fill-rule="nonzero"/><path fill="#e68e70" d="M 860.902344 316.84375 C 860.03125 317.207031 859.230469 317.6875 858.503906 318.285156 C 857.777344 318.886719 857.152344 319.578125 856.632812 320.363281 C 856.113281 321.148438 855.71875 321.992188 855.449219 322.894531 C 855.183594 323.796875 855.050781 324.71875 855.058594 325.660156 C 855.058594 331.464844 855.832031 341.667969 861.640625 341.972656 C 874.148438 342.613281 876.484375 332.808594 876.484375 332.808594 C 876.484375 332.808594 880.097656 318.488281 869.511719 316.332031 C 866.589844 315.632812 863.71875 315.804688 860.902344 316.84375 Z M 860.902344 316.84375 " fill-opacity="1" fill-rule="nonzero"/><path fill="#19100f" d="M 868.261719 328.648438 C 868.261719 328.863281 868.222656 329.070312 868.140625 329.269531 C 868.054688 329.46875 867.9375 329.644531 867.785156 329.796875 C 867.632812 329.949219 867.457031 330.066406 867.257812 330.152344 C 867.058594 330.234375 866.851562 330.273438 866.632812 330.273438 C 866.417969 330.273438 866.210938 330.234375 866.011719 330.152344 C 865.8125 330.066406 865.636719 329.949219 865.484375 329.796875 C 865.328125 329.644531 865.210938 329.46875 865.128906 329.269531 C 865.046875 329.070312 865.003906 328.863281 865.003906 328.648438 C 865.003906 328.433594 865.046875 328.226562 865.128906 328.027344 C 865.210938 327.828125 865.328125 327.652344 865.484375 327.5 C 865.636719 327.347656 865.8125 327.230469 866.011719 327.148438 C 866.210938 327.066406 866.417969 327.023438 866.632812 327.023438 C 866.851562 327.023438 867.058594 327.066406 867.257812 327.148438 C 867.457031 327.230469 867.632812 327.347656 867.785156 327.5 C 867.9375 327.652344 868.054688 327.828125 868.140625 328.027344 C 868.222656 328.226562 868.261719 328.433594 868.261719 328.648438 Z M 868.261719 328.648438 " fill-opacity="1" fill-rule="nonzero"/><path fill="#19100f" d="M 859.859375 329.191406 C 859.859375 329.40625 859.816406 329.613281 859.734375 329.8125 C 859.652344 330.011719 859.535156 330.1875 859.382812 330.339844 C 859.230469 330.492188 859.050781 330.609375 858.851562 330.691406 C 858.652344 330.773438 858.445312 330.816406 858.230469 330.816406 C 858.015625 330.816406 857.804688 330.773438 857.605469 330.691406 C 857.40625 330.609375 857.230469 330.492188 857.078125 330.339844 C 856.925781 330.1875 856.808594 330.011719 856.726562 329.8125 C 856.640625 329.613281 856.601562 329.40625 856.601562 329.191406 C 856.601562 328.976562 856.640625 328.769531 856.726562 328.570312 C 856.808594 328.371094 856.925781 328.195312 857.078125 328.042969 C 857.230469 327.890625 857.40625 327.773438 857.605469 327.691406 C 857.804688 327.609375 858.015625 327.566406 858.230469 327.566406 C 858.445312 327.566406 858.652344 327.609375 858.851562 327.691406 C 859.050781 327.773438 859.230469 327.890625 859.382812 328.042969 C 859.535156 328.195312 859.652344 328.371094 859.734375 328.570312 C 859.816406 328.769531 859.859375 328.976562 859.859375 329.191406 Z M 859.859375 329.191406 " fill-opacity="1" fill-rule="nonzero"/><path fill="#db5533" d="M 868.175781 335.648438 C 864.300781 339.773438 859.488281 336.828125 859.402344 336.796875 L 859.816406 336.132812 C 860.421875 336.511719 861.078125 336.773438 861.777344 336.925781 C 862.476562 337.074219 863.179688 337.105469 863.890625 337.011719 C 864.601562 336.917969 865.273438 336.710938 865.910156 336.382812 C 866.546875 336.058594 867.109375 335.636719 867.601562 335.117188 Z M 868.175781 335.648438 " fill-opacity="1" fill-rule="nonzero"/><path fill="#19100f" d="M 856.144531 326.308594 C 856.054688 326.25 856 326.167969 855.988281 326.058594 C 855.972656 325.953125 856.003906 325.859375 856.078125 325.777344 C 856.503906 325.378906 857 325.117188 857.570312 324.996094 C 858.140625 324.875 858.699219 324.914062 859.25 325.109375 C 859.347656 325.132812 859.417969 325.1875 859.464844 325.273438 C 859.511719 325.359375 859.519531 325.449219 859.488281 325.539062 C 859.460938 325.625 859.40625 325.691406 859.328125 325.734375 C 859.25 325.777344 859.164062 325.789062 859.078125 325.769531 C 858.65625 325.621094 858.226562 325.585938 857.785156 325.667969 C 857.347656 325.753906 856.960938 325.941406 856.621094 326.234375 C 856.570312 326.316406 856.496094 326.363281 856.402344 326.378906 C 856.304688 326.394531 856.21875 326.371094 856.144531 326.308594 Z M 856.144531 326.308594 " fill-opacity="1" fill-rule="nonzero"/><path fill="#19100f" d="M 864.417969 325.433594 C 864.332031 325.363281 864.289062 325.273438 864.289062 325.160156 C 864.289062 325.050781 864.332031 324.960938 864.417969 324.890625 C 864.917969 324.585938 865.460938 324.433594 866.046875 324.433594 C 866.632812 324.433594 867.175781 324.585938 867.675781 324.890625 C 867.765625 324.9375 867.824219 325.007812 867.855469 325.101562 C 867.886719 325.199219 867.875 325.289062 867.828125 325.378906 C 867.78125 325.457031 867.714844 325.507812 867.628906 325.535156 C 867.539062 325.5625 867.457031 325.558594 867.371094 325.519531 C 866.992188 325.289062 866.574219 325.175781 866.128906 325.175781 C 865.683594 325.175781 865.269531 325.289062 864.886719 325.519531 C 864.808594 325.566406 864.726562 325.582031 864.636719 325.5625 C 864.546875 325.546875 864.476562 325.503906 864.417969 325.433594 Z M 864.417969 325.433594 " fill-opacity="1" fill-rule="nonzero"/><path fill="#db5533" d="M 861.410156 334.519531 L 861.507812 334.597656 C 861.628906 334.671875 861.757812 334.730469 861.890625 334.78125 C 862.515625 334.996094 863.140625 334.996094 863.769531 334.78125 L 864.191406 334.617188 L 863.929688 333.890625 L 863.496094 334.042969 C 863.046875 334.203125 862.597656 334.203125 862.148438 334.042969 C 862.085938 334.023438 862.023438 333.996094 861.964844 333.957031 C 861.226562 333.339844 861.964844 331.347656 862.28125 330.707031 L 861.574219 330.359375 C 861.378906 330.644531 860.085938 333.414062 861.410156 334.519531 Z M 861.410156 334.519531 " fill-opacity="1" fill-rule="nonzero"/><path fill="#19100f" d="M 859.53125 317.472656 C 859.53125 317.472656 861.042969 324.457031 872.5625 327.113281 L 875.082031 329.277344 L 875.808594 335.875 C 875.808594 335.875 879.394531 334.078125 878.589844 325.910156 C 877.785156 317.742188 867.851562 306.519531 859.53125 317.472656 Z M 859.53125 317.472656 " fill-opacity="1" fill-rule="nonzero"/><path fill="#19100f" d="M 859.53125 317.472656 C 859.53125 317.472656 857.882812 325.410156 855.058594 329.582031 C 855.058594 329.558594 852.386719 319.050781 859.53125 317.472656 Z M 859.53125 317.472656 " fill-opacity="1" fill-rule="nonzero"/><g clip-path="url(#c71a6b8b54)"><path fill="#49818e" d="M 531.78125 204.734375 L 529.347656 204.679688 L 526.75 204.472656 L 529.171875 158.75 L 531.757812 159.074219 L 533.402344 158.972656 Z M 531.78125 204.734375 " fill-opacity="1" fill-rule="nonzero"/></g><path fill="#ffd0a6" d="M 559.589844 187.683594 L 543.875 186.851562 L 539.859375 176.324219 L 538.296875 162.671875 L 533.277344 161.390625 L 531.121094 202.183594 L 545.132812 199.117188 L 560.65625 196.375 Z M 559.589844 187.683594 " fill-opacity="1" fill-rule="nonzero"/><g clip-path="url(#0ce29a2580)"><path fill="#8dcce0" d="M 544.808594 184.023438 C 544.808594 184.023438 550.203125 187.242188 544.523438 189.417969 L 540.832031 189.222656 L 539.574219 199.804688 L 541.679688 199.878906 C 541.679688 199.878906 539.589844 204.613281 530.980469 204.773438 L 529.347656 204.6875 L 531.757812 159.082031 C 531.757812 159.082031 539.882812 157.347656 539.730469 167.6875 L 541.609375 177.367188 Z M 544.808594 184.023438 " fill-opacity="1" fill-rule="nonzero"/></g><path fill="#ffffff" d="M 540.554688 171.449219 C 539.648438 172.402344 538.605469 173.167969 537.425781 173.753906 C 536.246094 174.335938 535.003906 174.703125 533.695312 174.847656 L 530.851562 174.691406 L 530.949219 172.820312 L 533.941406 172.972656 C 533.941406 172.972656 538.628906 171.800781 540.105469 169.121094 Z M 540.554688 171.449219 " fill-opacity="1" fill-rule="nonzero"/><path fill="#ffffff" d="M 539.003906 202.640625 C 539.003906 202.640625 538.0625 198.015625 534.859375 196.476562 C 533.257812 195.628906 531.570312 195.046875 529.785156 194.734375 L 529.703125 196.34375 C 529.703125 196.34375 535.398438 196.234375 538.132812 203.140625 C 538.132812 203.15625 538.449219 203.171875 539.003906 202.640625 Z M 539.003906 202.640625 " fill-opacity="1" fill-rule="nonzero"/><path fill="#ffffff" d="M 544.261719 181.910156 C 544.261719 181.910156 543.144531 185.300781 539.882812 185.441406 L 539.34375 184.46875 C 539.34375 184.46875 542.636719 184.128906 543.359375 181.054688 Z M 544.261719 181.910156 " fill-opacity="1" fill-rule="nonzero"/><path fill="#ffffff" d="M 543.160156 179.578125 C 543.160156 179.578125 541.839844 182.660156 538.933594 182.566406 L 538.472656 180.792969 C 538.472656 180.792969 541.449219 180.734375 542.15625 178.484375 Z M 543.160156 179.578125 " fill-opacity="1" fill-rule="nonzero"/><path fill="#ffffff" d="M 541.480469 176.703125 C 541.480469 176.703125 540.660156 178.113281 538.035156 178.28125 L 537.785156 176.847656 C 537.785156 176.847656 540.175781 176.578125 541.109375 174.769531 C 541.441406 175.375 541.5625 176.019531 541.480469 176.703125 Z M 541.480469 176.703125 " fill-opacity="1" fill-rule="nonzero"/><path fill="#d34018" d="M 592.742188 103.285156 L 602.667969 116.015625 L 627.070312 122.855469 L 622.476562 111.859375 Z M 592.742188 103.285156 " fill-opacity="1" fill-rule="nonzero"/><path fill="#1c767f" d="M 662.644531 155.589844 L 619.683594 131.425781 L 607.632812 131.425781 L 566.914062 196.976562 L 587.199219 196.976562 L 618.175781 162.03125 L 645.882812 185.972656 Z M 662.644531 155.589844 " fill-opacity="1" fill-rule="nonzero"/><path fill="#238799" d="M 663.726562 152.792969 L 655.015625 164.195312 L 609.9375 168.109375 L 551.753906 185.109375 L 553.03125 200.589844 L 623.871094 196.273438 C 623.871094 196.273438 689.382812 198.371094 696.171875 192.082031 C 702.964844 185.796875 702.261719 155.953125 702.261719 155.953125 Z M 663.726562 152.792969 " fill-opacity="1" fill-rule="nonzero"/><path fill="#34a58d" d="M 658.105469 104.671875 C 658.105469 104.671875 659.171875 96.386719 666.902344 96.386719 C 674.632812 96.386719 688.480469 89.886719 700.273438 95.617188 C 701.03125 96.25 701.707031 96.957031 702.300781 97.746094 C 702.894531 98.535156 703.386719 99.382812 703.785156 100.285156 C 704.179688 101.1875 704.464844 102.125 704.644531 103.09375 C 704.820312 104.066406 704.886719 105.042969 704.835938 106.027344 L 702.261719 160.175781 C 700.285156 160.875 698.269531 161.445312 696.21875 161.882812 C 694.167969 162.324219 692.097656 162.628906 690.003906 162.796875 C 687.914062 162.96875 685.820312 163.003906 683.726562 162.902344 C 681.632812 162.804688 679.550781 162.570312 677.484375 162.199219 C 675.421875 161.828125 673.386719 161.328125 671.386719 160.695312 C 669.386719 160.058594 667.4375 159.300781 665.535156 158.414062 C 663.636719 157.527344 661.800781 156.523438 660.027344 155.398438 C 658.257812 154.273438 656.566406 153.042969 654.953125 151.699219 Z M 658.105469 104.671875 " fill-opacity="1" fill-rule="nonzero"/><path fill="#f15a29" d="M 602.667969 116.015625 C 602.667969 116.015625 618.761719 99.671875 631.539062 95.578125 L 660.640625 125.714844 L 630.492188 139.769531 Z M 602.667969 116.015625 " fill-opacity="1" fill-rule="nonzero"/><path fill="#ef9d6f" d="M 669.714844 83.011719 L 673.984375 95.578125 C 673.984375 95.578125 684.898438 98.578125 689.160156 93.082031 L 683.09375 79.398438 Z M 669.714844 83.011719 " fill-opacity="1" fill-rule="nonzero"/><path fill="#ffbf96" d="M 647.140625 137.027344 L 647.140625 132.019531 L 644.023438 133.476562 L 635.316406 124.707031 L 632.488281 125.839844 L 637.953125 132.613281 L 628.15625 124.707031 L 625.898438 127.15625 L 634.753906 134.308594 L 624.957031 129.875 L 623.152344 133.492188 L 632.863281 137.027344 L 625.898438 137.882812 L 625.898438 140.710938 L 636.070312 141.835938 L 644.023438 145.433594 L 648.496094 145.433594 L 651.59375 137.742188 Z M 647.140625 137.027344 " fill-opacity="1" fill-rule="nonzero"/><path fill="#4dbaa0" d="M 696.28125 116.460938 C 696.28125 118.363281 679.933594 142.351562 679.933594 142.351562 L 647.140625 137.019531 L 643.332031 147.304688 L 680.875 161.390625 C 681.398438 161.589844 681.933594 161.742188 682.484375 161.847656 C 683.03125 161.953125 683.585938 162.015625 684.144531 162.027344 C 684.707031 162.042969 685.261719 162.011719 685.816406 161.929688 C 686.371094 161.851562 686.914062 161.726562 687.445312 161.558594 C 687.976562 161.386719 688.492188 161.175781 688.992188 160.917969 C 689.488281 160.660156 689.960938 160.367188 690.40625 160.03125 C 690.855469 159.695312 691.273438 159.324219 691.65625 158.917969 C 692.042969 158.515625 692.390625 158.078125 692.707031 157.617188 L 700.414062 146.171875 C 701.953125 143.890625 703.277344 141.488281 704.378906 138.964844 C 705.484375 136.445312 706.351562 133.84375 706.984375 131.164062 C 707.613281 128.480469 708 125.765625 708.136719 123.015625 C 708.273438 120.265625 708.164062 117.527344 707.804688 114.796875 L 706.59375 105.511719 C 706.128906 103.613281 705.375 101.835938 704.339844 100.179688 C 703.304688 98.523438 702.035156 97.070312 700.535156 95.816406 L 700.273438 95.601562 Z M 696.28125 116.460938 " fill-opacity="1" fill-rule="nonzero"/><path fill="#ffbf96" d="M 656.625 67.4375 C 656.625 67.4375 657.558594 93.898438 670.152344 92.257812 C 682.746094 90.617188 688.242188 82.664062 688.242188 82.664062 C 688.242188 82.664062 690.144531 55.25 672.433594 57.539062 C 654.722656 59.824219 656.625 67.4375 656.625 67.4375 Z M 656.625 67.4375 " fill-opacity="1" fill-rule="nonzero"/><path fill="#19100f" d="M 675.117188 74.4375 C 675.117188 74.714844 675.0625 74.988281 674.957031 75.246094 C 674.847656 75.507812 674.695312 75.734375 674.496094 75.933594 C 674.296875 76.132812 674.066406 76.285156 673.808594 76.394531 C 673.546875 76.5 673.277344 76.554688 672.996094 76.554688 C 672.714844 76.554688 672.445312 76.5 672.1875 76.394531 C 671.925781 76.285156 671.699219 76.132812 671.5 75.933594 C 671.300781 75.734375 671.148438 75.507812 671.039062 75.246094 C 670.929688 74.988281 670.878906 74.714844 670.878906 74.4375 C 670.878906 74.15625 670.929688 73.882812 671.039062 73.625 C 671.148438 73.363281 671.300781 73.136719 671.5 72.9375 C 671.699219 72.738281 671.925781 72.585938 672.1875 72.476562 C 672.445312 72.371094 672.714844 72.316406 672.996094 72.316406 C 673.277344 72.316406 673.546875 72.371094 673.808594 72.476562 C 674.066406 72.585938 674.296875 72.738281 674.496094 72.9375 C 674.695312 73.136719 674.847656 73.363281 674.957031 73.625 C 675.0625 73.882812 675.117188 74.15625 675.117188 74.4375 Z M 675.117188 74.4375 " fill-opacity="1" fill-rule="nonzero"/><path fill="#19100f" d="M 664.328125 76.261719 C 664.328125 76.542969 664.273438 76.8125 664.164062 77.074219 C 664.058594 77.332031 663.90625 77.5625 663.707031 77.761719 C 663.507812 77.957031 663.277344 78.113281 663.019531 78.21875 C 662.757812 78.328125 662.488281 78.378906 662.207031 78.378906 C 661.925781 78.378906 661.65625 78.328125 661.394531 78.21875 C 661.136719 78.113281 660.90625 77.957031 660.707031 77.761719 C 660.507812 77.5625 660.355469 77.332031 660.25 77.074219 C 660.140625 76.8125 660.085938 76.542969 660.085938 76.261719 C 660.085938 75.980469 660.140625 75.710938 660.25 75.449219 C 660.355469 75.191406 660.507812 74.960938 660.707031 74.761719 C 660.90625 74.566406 661.136719 74.410156 661.394531 74.304688 C 661.65625 74.195312 661.925781 74.144531 662.207031 74.144531 C 662.488281 74.144531 662.757812 74.195312 663.019531 74.304688 C 663.277344 74.410156 663.507812 74.566406 663.707031 74.761719 C 663.90625 74.960938 664.058594 75.191406 664.164062 75.449219 C 664.273438 75.710938 664.328125 75.980469 664.328125 76.261719 Z M 664.328125 76.261719 " fill-opacity="1" fill-rule="nonzero"/><path fill="#db5533" d="M 675.925781 83.289062 C 671.480469 89.144531 664.820312 85.984375 664.75 85.957031 L 665.199219 85.039062 C 665.445312 85.160156 671.179688 87.859375 675.117188 82.679688 Z M 675.925781 83.289062 " fill-opacity="1" fill-rule="nonzero"/><path fill="#785014" d="M 659.140625 72.871094 L 659.085938 72.871094 C 658.953125 72.808594 658.875 72.707031 658.839844 72.566406 C 658.808594 72.425781 658.839844 72.296875 658.929688 72.1875 C 659.433594 71.554688 660.628906 70.542969 662.921875 70.890625 C 663.054688 70.910156 663.15625 70.96875 663.230469 71.078125 C 663.304688 71.183594 663.328125 71.300781 663.300781 71.429688 L 663.300781 71.492188 C 663.273438 71.605469 663.214844 71.695312 663.117188 71.761719 C 663.023438 71.828125 662.917969 71.855469 662.800781 71.839844 C 662.242188 71.699219 661.683594 71.714844 661.132812 71.878906 C 660.582031 72.046875 660.109375 72.339844 659.71875 72.761719 C 659.648438 72.851562 659.558594 72.902344 659.449219 72.921875 C 659.339844 72.945312 659.234375 72.925781 659.140625 72.871094 Z M 659.140625 72.871094 " fill-opacity="1" fill-rule="nonzero"/><path fill="#785014" d="M 670.738281 70.257812 L 670.691406 70.257812 C 670.578125 70.167969 670.523438 70.054688 670.523438 69.910156 C 670.523438 69.765625 670.578125 69.648438 670.691406 69.558594 C 671.316406 69.042969 672.6875 68.300781 674.871094 69.109375 C 674.992188 69.152344 675.082031 69.234375 675.132812 69.355469 C 675.183594 69.476562 675.179688 69.59375 675.125 69.710938 L 675.125 69.765625 C 675.078125 69.875 675 69.953125 674.890625 70 C 674.78125 70.046875 674.671875 70.046875 674.5625 70.003906 C 672.828125 69.367188 671.789062 69.921875 671.339844 70.28125 C 671.25 70.351562 671.148438 70.386719 671.035156 70.382812 C 670.921875 70.378906 670.824219 70.335938 670.738281 70.257812 Z M 670.738281 70.257812 " fill-opacity="1" fill-rule="nonzero"/><path fill="#db5533" d="M 667.046875 82.734375 L 667.179688 82.8125 C 667.339844 82.902344 667.511719 82.964844 667.695312 83.003906 C 668.535156 83.183594 669.339844 83.078125 670.105469 82.6875 L 670.660156 82.394531 L 670.214844 81.476562 L 669.683594 81.742188 C 669.132812 82.027344 668.554688 82.109375 667.949219 81.988281 C 667.863281 81.96875 667.78125 81.9375 667.703125 81.894531 L 667.640625 81.894531 C 666.617188 81.199219 667.285156 78.511719 667.640625 77.609375 L 666.675781 77.261719 C 666.476562 77.703125 665.183594 81.476562 667.046875 82.734375 Z M 667.046875 82.734375 " fill-opacity="1" fill-rule="nonzero"/><path fill="#1c767f" d="M 664.328125 54.023438 C 664.328125 54.023438 657.851562 53.0625 653.445312 66.816406 C 653.445312 66.816406 663.316406 65.582031 669.3125 61.503906 L 668.351562 65.84375 C 668.351562 65.84375 674.078125 62.984375 675.925781 60.410156 L 685.945312 72.316406 L 688.097656 76.167969 L 688.21875 82.671875 L 689.953125 83.097656 C 689.953125 83.097656 704.820312 54.269531 681.746094 49.964844 C 681.769531 49.925781 669.722656 47.265625 664.328125 54.023438 Z M 664.328125 54.023438 " fill-opacity="1" fill-rule="nonzero"/><path fill="#ffbf96" d="M 684.652344 73.980469 C 684.652344 73.980469 688.613281 68.03125 692.535156 72.441406 C 696.457031 76.847656 686.738281 80.476562 686.738281 80.476562 Z M 684.652344 73.980469 " fill-opacity="1" fill-rule="nonzero"/></svg>